<svg xmlns="http://www.w3.org/2000/svg" xmlns:xlink="http://www.w3.org/1999/xlink" width="115" height="44" viewBox="0 0 115 44"><defs><clipPath id="b"><rect width="115" height="44"/></clipPath></defs><g id="a" clip-path="url(#b)"><rect width="115" height="44" fill="#fff"/><g transform="translate(1.781 14.939)"><g transform="translate(4.219 2.061)"><g transform="translate(0 0.678)"><path d="M3.094-24.016V-9.731H6.653a5.23,5.23,0,0,0,3.42-.939,3.966,3.966,0,0,0,1.459-3.086,3.572,3.572,0,0,0-2.723-3.6,3.222,3.222,0,0,0,1.413-2.807A3.531,3.531,0,0,0,8.94-23.114a5.29,5.29,0,0,0-3.271-.9ZM4.683-22.51H5.919c.455,0,2.76.037,2.76,2.4,0,2.2-1.961,2.37-2.8,2.37h-1.2Zm0,6.18H6.309a5.006,5.006,0,0,1,2.416.428,2.324,2.324,0,0,1,1.217,2.1A2.408,2.408,0,0,1,9-11.832a3.93,3.93,0,0,1-2.509.6H4.683Zm0,0" transform="translate(-3.094 24.016)"/></g><g transform="translate(9.509 14.963)"><path/></g><g transform="translate(14.665)"><path d="M11.508-10.193h1.757l-6.4-14.963L.281-10.193H2.038l1.719-4.024H9.835ZM4.37-15.714l2.444-5.725,2.4,5.725Zm0,0" transform="translate(-0.281 25.156)"/></g><g transform="translate(27.816 14.963)"><path/></g><g transform="translate(34.646 0.678)"><path d="M3.094-9.731h2.89a7.174,7.174,0,0,0,5.223-1.645,6.809,6.809,0,0,0,2.509-5.483,6.94,6.94,0,0,0-2.444-5.483A7.74,7.74,0,0,0,6-24.016H3.094ZM4.683-22.51H6.068c3.625,0,6.022,2.221,6.022,5.651a5.419,5.419,0,0,1-1.933,4.34,6.06,6.06,0,0,1-4.089,1.292H4.683Zm0,0" transform="translate(-3.094 24.016)"/></g><g transform="translate(46.339 14.963)"><path/></g><g transform="translate(53.168 0.678)"><path d="M3.094-24.016V-9.731H4.683V-24.016Zm0,0" transform="translate(-3.094 24.016)"/></g><g transform="translate(56.595 14.963)"><path/></g><g transform="translate(62.653 0.446)"><path d="M13.488-22.994a6.7,6.7,0,0,0-4.219-1.413A7.257,7.257,0,0,0,1.8-16.981,7.226,7.226,0,0,0,9.185-9.629a7.441,7.441,0,0,0,4.3-1.394v-1.97a6.413,6.413,0,0,1-1.645,1.2,6.007,6.007,0,0,1-2.658.66,5.712,5.712,0,0,1-5.762-5.818A5.767,5.767,0,0,1,9.167-22.91a6.073,6.073,0,0,1,2.463.558,7.119,7.119,0,0,1,1.859,1.329Zm0,0" transform="translate(-1.797 24.406)"/></g><g transform="translate(75.417 14.963)"><path/></g><g transform="translate(82.246 0.678)"><path d="M4.683-24.016H3.094V-9.731H4.683v-6.98h7.323v6.98h1.58V-24.016h-1.58v5.809H4.683Zm0,0" transform="translate(-3.094 24.016)"/></g><g transform="translate(94.581 14.963)"><path/></g><g transform="translate(101.411 0.678)"><path d="M3.094-24.016V-9.731H4.683V-24.016Zm0,0" transform="translate(-3.094 24.016)"/></g></g></g></g></svg>