<svg xmlns="http://www.w3.org/2000/svg" xmlns:xlink="http://www.w3.org/1999/xlink" width="115" height="44" viewBox="0 0 115 44"><defs><clipPath id="b"><rect width="115" height="44"/></clipPath></defs><g id="a" clip-path="url(#b)"><rect width="115" height="44" fill="#fff"/><g transform="translate(-4718.565 -8295.887)"><path d="M12.591-70.576,13-71.5h.744v3.694H13a3.333,3.333,0,0,0-.958-2.047,2.664,2.664,0,0,0-1.936-.793,2.832,2.832,0,0,0-2.329,1.082,4.526,4.526,0,0,0-.868,2.917,3.914,3.914,0,0,0,.847,2.633,2.815,2.815,0,0,0,2.253.993,2.88,2.88,0,0,0,2.019-.765,3.472,3.472,0,0,0,1.054-2.033l.923-.014a4.3,4.3,0,0,1-1.289,2.818A4.088,4.088,0,0,1,9.8-61.973a4.43,4.43,0,0,1-3.294-1.282A4.538,4.538,0,0,1,5.242-66.59,5.311,5.311,0,0,1,6.462-70.2,3.962,3.962,0,0,1,9.6-71.607a5.521,5.521,0,0,1,1.068.089,3.786,3.786,0,0,1,.861.282q.248.127.507.289t.551.386Zm9.275,3.5a2.79,2.79,0,0,1,1.661.717,2.055,2.055,0,0,1,.585,1.53A2.1,2.1,0,0,1,23.072-62.8a4.989,4.989,0,0,1-2.283.586H14.961V-63h.526a1.164,1.164,0,0,0,.738-.138.9.9,0,0,0,.172-.661V-69.8a.875.875,0,0,0-.172-.647,1.2,1.2,0,0,0-.738-.152l-.524-.014V-71.4h5.457a4.219,4.219,0,0,1,2.41.6,1.956,1.956,0,0,1,.824,1.7,1.988,1.988,0,0,1-.469,1.344,2.18,2.18,0,0,1-1.323.7ZM17.884-63.05h2.439a2.391,2.391,0,0,0,1.6-.427,1.649,1.649,0,0,0,.523-1.339,1.606,1.606,0,0,0-.538-1.254,2.025,2.025,0,0,0-1.406-.483H17.883Zm0-4.355h2.371a1.924,1.924,0,0,0,1.344-.413,1.475,1.475,0,0,0,.489-1.171,1.438,1.438,0,0,0-.469-1.157,2.049,2.049,0,0,0-1.364-.4H17.883Zm7.235-3.211V-71.4H30.6a4.088,4.088,0,0,1,3.066,1.233,4.467,4.467,0,0,1,1.164,3.218,4.938,4.938,0,0,1-1.164,3.473,4.1,4.1,0,0,1-3.177,1.268H25.118V-63h.524a1.164,1.164,0,0,0,.738-.138.9.9,0,0,0,.173-.661V-69.8a.875.875,0,0,0-.173-.648,1.2,1.2,0,0,0-.738-.152Zm2.922,7.567h2.178a2.55,2.55,0,0,0,2.2-.98,4.825,4.825,0,0,0,.744-2.922,3.99,3.99,0,0,0-.793-2.681,2.886,2.886,0,0,0-2.308-.916H28.04Z" transform="translate(4724.173 8383.495)"/><path d="M4.056-49.113H1.132l-.083.207q-.041.1-.093.207-.031.093-.067.176t-.067.176a2.239,2.239,0,0,0-.1.306,1.216,1.216,0,0,0-.036.285.311.311,0,0,0,.127.28.857.857,0,0,0,.444.083h.55v.581H-1.262v-.581a2.294,2.294,0,0,0,.737-.067.761.761,0,0,0,.381-.381q.052-.1.109-.228t.119-.28l2.146-5.38H3.32l2.353,5.506q.041.083.072.16a.761.761,0,0,0,.072.14,1.516,1.516,0,0,0,.259.381.642.642,0,0,0,.477.15h.374v.581H3.558v-.581H4.15a.921.921,0,0,0,.389-.042.19.19,0,0,0,.109-.19.417.417,0,0,0-.021-.12,1.822,1.822,0,0,0-.083-.2ZM3.8-49.747,2.519-52.71,1.371-49.745Zm5.226-1.908-.031.809a2.237,2.237,0,0,1,.726-.736,1.852,1.852,0,0,1,.944-.228,1.834,1.834,0,0,1,.99.238,1.425,1.425,0,0,1,.565.736,1.93,1.93,0,0,1,.7-.731,1.917,1.917,0,0,1,.98-.244,1.488,1.488,0,0,1,1.26.462,2.127,2.127,0,0,1,.348,1.3v2.029a.923.923,0,0,0,.1.55.7.7,0,0,0,.487.114h.3v.539H13.637v-.539H13.9q.394,0,.493-.109a.909.909,0,0,0,.1-.534v-1.939a1.338,1.338,0,0,0-.223-.871.946.946,0,0,0-.752-.259,1.121,1.121,0,0,0-.882.374,1.459,1.459,0,0,0-.332,1.006v1.68a.9.9,0,0,0,.1.544.722.722,0,0,0,.487.109h.3v.539h-2.8v-.539H10.7q.394,0,.487-.109A.951.951,0,0,0,11.28-48v-1.939a1.3,1.3,0,0,0-.233-.866.97.97,0,0,0-.761-.264,1.129,1.129,0,0,0-.923.389,1.671,1.671,0,0,0-.322,1.094v1.576a.935.935,0,0,0,.1.544q.1.109.482.109h.311v.539H7.063v-.539h.374q.394.01.493-.1a.942.942,0,0,0,.1-.541v-2.454a.888.888,0,0,0-.1-.525q-.1-.109-.493-.109H7.063v-.571Zm12.993,2.468H18.274a2.647,2.647,0,0,0,.348,1.312,1.268,1.268,0,0,0,1.187.544,1.479,1.479,0,0,0,.98-.342,1.652,1.652,0,0,0,.544-.934l.663-.01a2.489,2.489,0,0,1-.814,1.468,2.3,2.3,0,0,1-1.522.513,2.433,2.433,0,0,1-1.814-.7,2.489,2.489,0,0,1-.684-1.825A2.723,2.723,0,0,1,17.83-51.1a2.366,2.366,0,0,1,1.809-.71A2.605,2.605,0,0,1,21.1-51.4a1.813,1.813,0,0,1,.8,1.078,1.42,1.42,0,0,1,.047.171q.016.077.026.14a1.753,1.753,0,0,1,.036.317q.007.169.007.511Zm-1.1-.587a1.621,1.621,0,0,0-.363-1.073,1.2,1.2,0,0,0-.933-.381,1.2,1.2,0,0,0-.918.4,1.742,1.742,0,0,0-.431,1.055Zm3.816-1.877L24.7-50.6q.238-.332.436-.56a2.093,2.093,0,0,1,.394-.363,1.2,1.2,0,0,1,.353-.176,1.355,1.355,0,0,1,.381-.052.928.928,0,0,1,.653.238.782.782,0,0,1,.259.6.883.883,0,0,1-.181.575.59.59,0,0,1-.482.223.563.563,0,0,1-.415-.166.55.55,0,0,1-.166-.4.507.507,0,0,1,.041-.207.433.433,0,0,1,.114-.155.081.081,0,0,1,.021-.016l.01-.005.036-.036a.063.063,0,0,0,.02-.048.051.051,0,0,0-.026-.047.212.212,0,0,0-.1-.016.521.521,0,0,0-.186.047,1.368,1.368,0,0,0-.238.127l-.114.093a1.4,1.4,0,0,0-.114.1,2.118,2.118,0,0,0-.348.487,3.146,3.146,0,0,0-.244.7v1.649a.964.964,0,0,0,.1.55q.1.114.482.114h.581v.539H22.762v-.539H23.2q.394.01.493-.1a.941.941,0,0,0,.1-.54v-2.453a.888.888,0,0,0-.1-.525q-.1-.109-.493-.109l-.436-.011v-.561Zm4.739,0v3.64a.964.964,0,0,0,.1.55q.1.114.482.114h.372v.539h-3v-.539h.436q.394.01.493-.1a.942.942,0,0,0,.1-.541v-2.454a.888.888,0,0,0-.1-.525q-.1-.109-.493-.109h-.436v-.571Zm-.539-2.093a.7.7,0,0,1,.477.2.634.634,0,0,1,.2.472.638.638,0,0,1-.2.467.649.649,0,0,1-.477.2.638.638,0,0,1-.467-.2.638.638,0,0,1-.2-.469.634.634,0,0,1,.2-.472.646.646,0,0,1,.467-.19Zm6.4,4.947h.6a2.768,2.768,0,0,1-.7,1.576,2.093,2.093,0,0,1-1.6.591,2.39,2.39,0,0,1-1.783-.674,2.46,2.46,0,0,1-.663-1.8,2.787,2.787,0,0,1,.669-1.981,2.423,2.423,0,0,1,1.863-.72,2.7,2.7,0,0,1,1.514.389,1.161,1.161,0,0,1,.591,1,.909.909,0,0,1-.2.617.7.7,0,0,1-.555.233.646.646,0,0,1-.477-.186.634.634,0,0,1-.186-.467.575.575,0,0,1,.093-.327.335.335,0,0,1,.228-.16h.031a.035.035,0,0,1,.026-.01h.026a.16.16,0,0,0,.072-.016.058.058,0,0,0,.031-.057q0-.127-.19-.212a2.139,2.139,0,0,0-.42-.14q-.135-.021-.259-.036a1.726,1.726,0,0,0-.207-.016,1.376,1.376,0,0,0-1.142.524A2.327,2.327,0,0,0,32.28-49.2a2.078,2.078,0,0,0,.426,1.387,1.464,1.464,0,0,0,1.182.5,1.254,1.254,0,0,0,.939-.4,1.99,1.99,0,0,0,.5-1.078Zm6.315-.052h.539v.425a4.461,4.461,0,0,1-.15,1.2q-.15.534-1.053.534a1.022,1.022,0,0,1-.72-.244,1.156,1.156,0,0,1-.327-.731.272.272,0,0,1-.026.041.273.273,0,0,0-.026.041,2.417,2.417,0,0,1-.752.726,1.916,1.916,0,0,1-.951.218,1.547,1.547,0,0,1-1.06-.35,1.208,1.208,0,0,1-.4-.951,1.36,1.36,0,0,1,.41-1.089,3.009,3.009,0,0,1,1.447-.519q.114-.021.218-.036t.2-.026a1.929,1.929,0,0,0,.8-.264.629.629,0,0,0,.176-.5.79.79,0,0,0-.29-.669,1.419,1.419,0,0,0-.871-.223,1.966,1.966,0,0,0-.575.078,1.078,1.078,0,0,0-.431.244.548.548,0,0,1,.327.155.477.477,0,0,1,.1.316.563.563,0,0,1-.181.436.672.672,0,0,1-.472.166.571.571,0,0,1-.436-.19.685.685,0,0,1-.176-.482,1.056,1.056,0,0,1,.518-.923,2.555,2.555,0,0,1,1.421-.342,4.657,4.657,0,0,1,.888.072,1.943,1.943,0,0,1,.627.228,1.01,1.01,0,0,1,.42.425,1.735,1.735,0,0,1,.119.726v2.468a.8.8,0,0,0,.078.4.264.264,0,0,0,.244.127.288.288,0,0,0,.306-.2,3.361,3.361,0,0,0,.067-.856Zm-1.712-.571-.16.088q-.067.036-.14.067a.4.4,0,0,1-.052.021.4.4,0,0,0-.052.021q-.072.021-.155.052t-.2.063q-.332.1-.565.186t-.386.15a.719.719,0,0,0-.342.285.986.986,0,0,0-.072.42.658.658,0,0,0,.212.513.843.843,0,0,0,.586.19,1.268,1.268,0,0,0,.965-.381,1.4,1.4,0,0,0,.363-1.006Zm4.614-2.229-.044.784q.114-.135.218-.254a2.44,2.44,0,0,1,.207-.212,1.654,1.654,0,0,1,.606-.374,2.385,2.385,0,0,1,.741-.1,1.743,1.743,0,0,1,1.218.41,1.522,1.522,0,0,1,.451,1.187v2.2a.963.963,0,0,0,.1.55q.1.114.482.114h.311v.539H46.009v-.539h.3q.394.01.493-.1a.942.942,0,0,0,.1-.541V-50a1.231,1.231,0,0,0-.238-.832.932.932,0,0,0-.736-.27,1.453,1.453,0,0,0-1,.337,1.123,1.123,0,0,0-.381.888v1.866a.963.963,0,0,0,.1.55q.1.114.482.114h.311v.539H42.566v-.539h.374q.394.01.493-.1a.941.941,0,0,0,.1-.54v-2.453a.888.888,0,0,0-.1-.525q-.1-.109-.493-.109l-.374-.011v-.561Zm12.7-1.528.238-.6h.56v2.561h-.571a2.518,2.518,0,0,0-.715-1.444,2.22,2.22,0,0,0-1.555-.5,1.925,1.925,0,0,0-1.166.344,1.021,1.021,0,0,0-.472.848.728.728,0,0,0,.3.623,2.167,2.167,0,0,0,.959.311q.093.01.19.026t.2.026q.2.031.41.057t.42.067a5.2,5.2,0,0,1,1.6.535,1.472,1.472,0,0,1,.732,1.431,2.075,2.075,0,0,1-.71,1.621,2.631,2.631,0,0,1-1.819.634,4.391,4.391,0,0,1-1.182-.145,2.886,2.886,0,0,1-1.006-.529l-.127-.109-.14-.119-.259.726h-.56v-2.758h.634a2.823,2.823,0,0,0,.275,1.053,2,2,0,0,0,.648.7,2.59,2.59,0,0,0,.731.348,2.829,2.829,0,0,0,.814.119,1.857,1.857,0,0,0,1.156-.343,1.062,1.062,0,0,0,.451-.883.824.824,0,0,0-.606-.862,8.427,8.427,0,0,0-1.4-.312l-.179-.025a1.331,1.331,0,0,1-.176-.031,6,6,0,0,1-1.633-.457,1.365,1.365,0,0,1-.741-1.4,2.055,2.055,0,0,1,.689-1.62,2.648,2.648,0,0,1,1.819-.609,4.185,4.185,0,0,1,.944.1,2.931,2.931,0,0,1,.83.337l.212.127a2.163,2.163,0,0,1,.212.158Zm3.919-.55v2.758a1.776,1.776,0,0,1,.705-.634,2.22,2.22,0,0,1,1.006-.218,1.751,1.751,0,0,1,1.2.394,1.353,1.353,0,0,1,.444,1.068v2.346a.923.923,0,0,0,.1.55.7.7,0,0,0,.487.114h.374v.539H62.62v-.539h.311q.394.01.487-.1a.985.985,0,0,0,.093-.541v-2.174a.888.888,0,0,0-.28-.691,1.1,1.1,0,0,0-.767-.254,1.332,1.332,0,0,0-.933.332,1.1,1.1,0,0,0-.363.85v1.918a.964.964,0,0,0,.1.55q.1.114.482.114h.342v.539h-2.9v-.539h.374q.394.01.493-.1a.94.94,0,0,0,.1-.54v-4.529a.888.888,0,0,0-.1-.524q-.1-.109-.493-.109h-.374v-.571Zm9.893,4.874H71.6v.425a4.461,4.461,0,0,1-.15,1.2q-.15.534-1.053.534a1.022,1.022,0,0,1-.72-.244,1.156,1.156,0,0,1-.327-.731.27.27,0,0,1-.026.041.272.272,0,0,0-.026.041,2.417,2.417,0,0,1-.752.726,1.916,1.916,0,0,1-.951.218,1.547,1.547,0,0,1-1.062-.346,1.208,1.208,0,0,1-.4-.951,1.36,1.36,0,0,1,.41-1.089,3.009,3.009,0,0,1,1.447-.519q.114-.021.218-.036t.2-.026a1.929,1.929,0,0,0,.8-.264.63.63,0,0,0,.176-.5.79.79,0,0,0-.29-.669,1.419,1.419,0,0,0-.871-.223,1.966,1.966,0,0,0-.575.078,1.078,1.078,0,0,0-.431.244.548.548,0,0,1,.327.155.477.477,0,0,1,.1.322.562.562,0,0,1-.181.436.672.672,0,0,1-.472.166.571.571,0,0,1-.436-.19.686.686,0,0,1-.176-.482,1.056,1.056,0,0,1,.519-.923,2.555,2.555,0,0,1,1.421-.342,4.656,4.656,0,0,1,.888.072,1.943,1.943,0,0,1,.627.228,1.01,1.01,0,0,1,.42.425,1.735,1.735,0,0,1,.119.726v2.468a.8.8,0,0,0,.078.4.264.264,0,0,0,.244.127.288.288,0,0,0,.306-.2,3.361,3.361,0,0,0,.067-.856Zm-1.712-.571-.16.088q-.067.036-.14.067a.4.4,0,0,1-.052.021.4.4,0,0,0-.052.021q-.072.021-.155.052t-.2.063q-.332.1-.565.186t-.389.155a.718.718,0,0,0-.342.285.986.986,0,0,0-.072.42.658.658,0,0,0,.212.513.843.843,0,0,0,.586.19,1.268,1.268,0,0,0,.965-.381,1.4,1.4,0,0,0,.363-1.006Zm4.593-2.229-.031.809a2.237,2.237,0,0,1,.726-.736,1.853,1.853,0,0,1,.944-.228,1.834,1.834,0,0,1,.99.238,1.425,1.425,0,0,1,.565.736,1.93,1.93,0,0,1,.7-.731,1.917,1.917,0,0,1,.98-.244,1.488,1.488,0,0,1,1.26.462,2.127,2.127,0,0,1,.348,1.3v2.029a.923.923,0,0,0,.1.55.7.7,0,0,0,.487.114h.3v.539H78.558v-.539h.259q.394,0,.493-.109a.908.908,0,0,0,.1-.534v-1.939a1.338,1.338,0,0,0-.223-.871.946.946,0,0,0-.752-.259,1.121,1.121,0,0,0-.882.374,1.459,1.459,0,0,0-.332,1.006v1.68a.9.9,0,0,0,.1.544.722.722,0,0,0,.487.109h.3v.539h-2.8v-.539h.311q.394,0,.488-.109A.951.951,0,0,0,76.2-48v-1.939a1.3,1.3,0,0,0-.233-.866.97.97,0,0,0-.761-.264,1.129,1.129,0,0,0-.923.389,1.671,1.671,0,0,0-.322,1.094v1.576a.935.935,0,0,0,.1.544q.1.109.482.109h.311v.539H71.984v-.539h.374q.394.01.493-.1a.942.942,0,0,0,.1-.541v-2.454a.888.888,0,0,0-.1-.525q-.1-.109-.493-.109h-.374v-.571Zm12.951,2.8h.539v.425a4.46,4.46,0,0,1-.15,1.2q-.15.534-1.053.534a1.022,1.022,0,0,1-.72-.244,1.156,1.156,0,0,1-.327-.731.272.272,0,0,1-.026.041.273.273,0,0,0-.026.041,2.417,2.417,0,0,1-.752.726,1.916,1.916,0,0,1-.951.218,1.547,1.547,0,0,1-1.06-.346,1.208,1.208,0,0,1-.4-.951,1.36,1.36,0,0,1,.41-1.089,3.009,3.009,0,0,1,1.447-.519q.114-.021.218-.036t.2-.026a1.929,1.929,0,0,0,.8-.264.629.629,0,0,0,.176-.5.79.79,0,0,0-.29-.669,1.419,1.419,0,0,0-.871-.223,1.966,1.966,0,0,0-.575.078,1.078,1.078,0,0,0-.431.244.548.548,0,0,1,.327.155.477.477,0,0,1,.1.322.562.562,0,0,1-.181.436.672.672,0,0,1-.472.166.571.571,0,0,1-.436-.19.686.686,0,0,1-.176-.482,1.056,1.056,0,0,1,.519-.923,2.555,2.555,0,0,1,1.421-.342,4.656,4.656,0,0,1,.888.072,1.943,1.943,0,0,1,.627.228,1.01,1.01,0,0,1,.42.425,1.735,1.735,0,0,1,.119.726v2.468a.8.8,0,0,0,.078.4.264.264,0,0,0,.244.127.288.288,0,0,0,.306-.2,3.361,3.361,0,0,0,.067-.856Zm-1.712-.571-.16.088q-.067.036-.14.067a.4.4,0,0,1-.052.021.4.4,0,0,0-.052.021q-.072.021-.155.052t-.2.063q-.332.1-.565.186t-.389.155a.718.718,0,0,0-.342.285.985.985,0,0,0-.072.42.658.658,0,0,0,.212.513.843.843,0,0,0,.586.19,1.268,1.268,0,0,0,.965-.381,1.4,1.4,0,0,0,.363-1.006ZM89.8-51.653l-.041.788q.114-.135.218-.254a2.434,2.434,0,0,1,.207-.212,1.654,1.654,0,0,1,.606-.374,2.385,2.385,0,0,1,.741-.1,1.743,1.743,0,0,1,1.218.41,1.522,1.522,0,0,1,.451,1.187v2.2a.964.964,0,0,0,.1.55q.1.114.482.114h.311v.539H91.257v-.539h.3q.394.01.493-.1a.942.942,0,0,0,.1-.541V-50a1.231,1.231,0,0,0-.238-.832.932.932,0,0,0-.731-.273,1.453,1.453,0,0,0-1,.337,1.123,1.123,0,0,0-.381.888v1.866a.964.964,0,0,0,.1.55q.1.114.482.114h.311v.539H87.817v-.539h.374q.394.01.493-.1a.941.941,0,0,0,.1-.54v-2.453a.888.888,0,0,0-.1-.525q-.1-.109-.493-.109l-.374-.011v-.561Z" transform="translate(4729.827 8377.546)"/></g></g></svg>