<svg xmlns="http://www.w3.org/2000/svg" xmlns:xlink="http://www.w3.org/1999/xlink" width="115" height="44" viewBox="0 0 115 44"><defs><clipPath id="a"><path d="M3258.043-637.641h76.891v-22h-76.891Z" transform="translate(-3258.043 659.641)"/></clipPath><clipPath id="b"><path d="M3258-637.641h76.9v-22H3258Z" transform="translate(-3258.004 659.641)"/></clipPath><clipPath id="d"><rect width="115" height="44"/></clipPath></defs><g id="c" clip-path="url(#d)"><rect width="115" height="44" fill="#fff"/><g transform="translate(-138.137 -602.871)"><g transform="translate(157.137 609.871)"><g transform="translate(0.007 0)"><g clip-path="url(#a)"><g transform="translate(-0.007 13.194)"><path d="M-21.759-7.907a2.516,2.516,0,0,0-2.717,2.616,2.516,2.516,0,0,0,2.717,2.616,2.512,2.512,0,0,0,2.7-2.616,2.513,2.513,0,0,0-2.7-2.616m0,7.019c-3.144,0-4.918-2.213-4.918-4.4a4.58,4.58,0,0,1,4.918-4.4,4.576,4.576,0,0,1,4.905,4.4,4.586,4.586,0,0,1-4.905,4.4" transform="translate(26.676 9.694)"/></g></g></g><g transform="translate(14.304 13.309)"><path d="M-28.271-18.31l3.723,4.44h-2.768l-2.326-2.83-2.289,2.83h-2.73l3.635-4.44-3.434-4.138h2.767l2.05,2.528,2.012-2.528h2.718Z" transform="translate(34.661 22.448)"/></g><g transform="translate(29.339 13.309)"><path d="M-26.158-6.953h-3.774v1.912h3.774v1.572h-3.774V.053H-32.07V-8.525h5.912Z" transform="translate(32.07 8.525)"/></g><g transform="translate(0 0)"><g clip-path="url(#b)"><g transform="translate(40.352 13.194)"><path d="M-21.763-7.907A2.516,2.516,0,0,0-24.48-5.291a2.516,2.516,0,0,0,2.717,2.616,2.512,2.512,0,0,0,2.7-2.616,2.513,2.513,0,0,0-2.7-2.616m0,7.019c-3.145,0-4.919-2.213-4.919-4.4a4.581,4.581,0,0,1,4.919-4.4,4.576,4.576,0,0,1,4.9,4.4,4.587,4.587,0,0,1-4.9,4.4" transform="translate(26.681 9.694)"/></g><g transform="translate(55.504 13.309)"><path d="M-9.46-15.581h1.132c.591,0,1.17-.252,1.17-.981,0-.643-.415-.969-1.22-.969H-9.46Zm1.7-3.521a2.571,2.571,0,0,1,2.805,2.465,2.22,2.22,0,0,1-1.471,2.1c.88.441,1.143,1.5,2.351,4.012H-6.428c-.919-1.836-1.258-3.483-2.416-3.483H-9.46v3.483H-11.6V-19.1h3.836Z" transform="translate(11.598 19.103)"/></g><g transform="translate(68.371 13.309)"><path d="M-9.458-31h1.4A2.535,2.535,0,0,0-5.27-33.719a2.525,2.525,0,0,0-2.817-2.718H-9.458Zm1.648-7.007c3.131,0,4.741,1.95,4.741,4.3,0,2.465-1.56,4.276-4.98,4.276H-11.6v-8.578Z" transform="translate(11.596 38.008)"/></g><path d="M3322.425-609.191h-.8V-624.6h.8Z" transform="translate(-3309.897 631.056)"/><path d="M3399.541-621.81h-.8v-18.257h.8Z" transform="translate(-3372.798 643.676)"/><path d="M3463.532-594.279h-.8v-12.035h.8Z" transform="translate(-3424.992 616.145)"/><path d="M3540.247-637.755h-.8v-21.886h.8Z" transform="translate(-3487.565 659.641)"/><path d="M3610.755-603.341h-.8v-14.108h.8Z" transform="translate(-3545.074 625.227)"/></g></g></g></g></g></svg>