<svg xmlns="http://www.w3.org/2000/svg" xmlns:xlink="http://www.w3.org/1999/xlink" width="115" height="44" viewBox="0 0 115 44"><defs><linearGradient id="a" x1="0.57" y1="0.496" x2="0.412" y2="0.567" gradientUnits="objectBoundingBox"><stop offset="0" stop-color="#d82128"/><stop offset="1" stop-color="#b12024"/></linearGradient><linearGradient id="b" x1="0.537" y1="0.673" x2="0.376" y2="1.065" gradientUnits="objectBoundingBox"><stop offset="0" stop-color="#231f20" stop-opacity="0"/><stop offset="1" stop-color="#231f20"/></linearGradient><linearGradient id="c" x1="0.51" y1="0.248" x2="0.52" y2="-0.011" xlink:href="#b"/><clipPath id="e"><rect width="115" height="44"/></clipPath></defs><g id="d" clip-path="url(#e)"><rect width="115" height="44" fill="#fff"/><g transform="translate(7 17)"><g transform="translate(26.435 2.182)"><g transform="translate(2.786 0)"><path d="M366.256,28.639a1.314,1.314,0,0,1,.3,1.259,3.274,3.274,0,0,1-.617,1.413,3.18,3.18,0,0,1-1.194.942,3.946,3.946,0,0,1-1.641.333h-1.072l-.65,1.681H359.8l2.347-6.075h2.664a2.015,2.015,0,0,1,1.445.447Zm-1.778,2.372a1.335,1.335,0,0,0,.487-.836.59.59,0,0,0-.122-.536.831.831,0,0,0-.6-.187h-1.007l-.724,1.86h1.007a1.456,1.456,0,0,0,.962-.3Z" transform="translate(-359.8 -28.084)"/><path d="M439.151,29.459h-3.208L435.5,30.6h2.9l-.487,1.259h-2.9l-.439,1.153h3.3l-.487,1.267H432.5l2.347-6.075h4.791Z" transform="translate(-426.596 -28.092)"/><path d="M509.753,31.36a3.234,3.234,0,0,1-1.292.942l.479,1.965h-1.8l-.235-1.681h-1.169l-.65,1.681H503.5l2.347-6.075h2.729a2.2,2.2,0,0,1,1.519.447,1.315,1.315,0,0,1,.325,1.267A3.366,3.366,0,0,1,509.753,31.36Zm-3.533-.041h1.145a1.509,1.509,0,0,0,.965-.3,1.315,1.315,0,0,0,.487-.836.59.59,0,0,0-.122-.536.831.831,0,0,0-.6-.187h-1.153Z" transform="translate(-491.83 -28.084)"/><path d="M585.991,29.367h-2.948l-.52,1.348h2.723l-.487,1.267h-2.721l-.853,2.193H579.6l2.347-6.074h4.532Z" transform="translate(-561.75 -28)"/><path d="M657.714,27.271a2.038,2.038,0,0,1,.869,1.013,2.572,2.572,0,0,1,.106,1.462,3.846,3.846,0,0,1-.8,1.73,4.455,4.455,0,0,1-1.551,1.243,4.246,4.246,0,0,1-1.9.455,2.757,2.757,0,0,1-1.478-.374,2.09,2.09,0,0,1-.869-1.023,2.7,2.7,0,0,1-.106-1.478,3.933,3.933,0,0,1,.8-1.73,4.475,4.475,0,0,1,1.544-1.226,4.24,4.24,0,0,1,1.9-.447,2.92,2.92,0,0,1,1.485.375Zm-2.81,1.235a2.651,2.651,0,0,0-.828.707,2.283,2.283,0,0,0-.439.983,1.647,1.647,0,0,0,.04.828,1.188,1.188,0,0,0,1.161.812,1.92,1.92,0,0,0,.95-.268,2.62,2.62,0,0,0,.812-.715,2.413,2.413,0,0,0,.439-.991,1.648,1.648,0,0,0-.041-.828,1.089,1.089,0,0,0-.422-.577,1.211,1.211,0,0,0-.706-.211,2.056,2.056,0,0,0-.967.26Z" transform="translate(-628.202 -26.895)"/><path d="M735.053,31.36a3.234,3.234,0,0,1-1.291.942l.479,1.965h-1.8l-.236-1.681h-1.169l-.65,1.681H728.8l2.347-6.075h2.729a2.2,2.2,0,0,1,1.519.447,1.315,1.315,0,0,1,.325,1.267,3.367,3.367,0,0,1-.666,1.454Zm-3.533-.041h1.145a1.509,1.509,0,0,0,.965-.3,1.314,1.314,0,0,0,.487-.836.59.59,0,0,0-.122-.536.832.832,0,0,0-.6-.187h-1.154Z" transform="translate(-698.833 -28.084)"/><path d="M812.945,28.2h1.714l-2.309,6.075h-1.395l1.486-3.9-2.834,3.289h-1.013l-.317-3.3L806.8,34.275h-1.4l2.306-6.075h1.706l.406,3.6Z" transform="translate(-769.212 -28.092)"/><path d="M901.784,34.275l-.032-1.072H899.12l-.8,1.072H896.7l4.735-6.075h1.632l.414,6.075Zm-1.77-2.29h1.7l-.065-2.2Z" transform="translate(-853.097 -28.092)"/><path d="M992.389,28.2h1.47l-2.347,6.075h-1.381l-1.34-3.638-1.413,3.638H985.9l2.347-6.075h1.389l1.348,3.654Z" transform="translate(-935.053 -28.092)"/><path d="M1082.682,27.369a2.181,2.181,0,0,1,.893.763l-1.243,1.112a1.5,1.5,0,0,0-.528-.593,1.334,1.334,0,0,0-.739-.219,2.091,2.091,0,0,0-.965.252,2.456,2.456,0,0,0-.8.7,2.306,2.306,0,0,0-.43.965,1.589,1.589,0,0,0,.041.812,1.069,1.069,0,0,0,.422.569,1.244,1.244,0,0,0,.724.211,2.308,2.308,0,0,0,.836-.187,3.726,3.726,0,0,0,.877-.52l.641,1a5.377,5.377,0,0,1-1.413.828,3.921,3.921,0,0,1-1.438.308,2.585,2.585,0,0,1-1.43-.374,2.053,2.053,0,0,1-.828-1.023,2.71,2.71,0,0,1-.089-1.478,3.92,3.92,0,0,1,.8-1.73,4.494,4.494,0,0,1,1.527-1.226,4.173,4.173,0,0,1,1.882-.447,2.68,2.68,0,0,1,1.267.277Z" transform="translate(-1018.89 -27.074)"/><path d="M1150.751,29.459h-3.208L1147.1,30.6h2.9l-.488,1.259h-2.9l-.447,1.153h3.306l-.488,1.267H1144.1l2.347-6.075h4.791Z" transform="translate(-1080.405 -28.092)"/></g><g transform="translate(0 7.943)"><path d="M333.045,126.3h1.714l-2.309,6.075h-1.395l1.486-3.9-2.834,3.289h-1.013l-.308-3.3-1.486,3.906h-1.4l2.306-6.075h1.706l.406,3.6Z" transform="translate(-325.5 -126.168)"/><path d="M421.884,132.375l-.032-1.072H419.22l-.8,1.072H416.8l4.743-6.075h1.632l.414,6.075Zm-1.77-2.29h1.7l-.065-2.2Z" transform="translate(-409.385 -126.168)"/><path d="M512.153,129.46a3.234,3.234,0,0,1-1.291.942l.479,1.965h-1.8l-.236-1.681h-1.169l-.65,1.681H505.9l2.347-6.075h2.729a2.2,2.2,0,0,1,1.519.447,1.315,1.315,0,0,1,.325,1.267A3.188,3.188,0,0,1,512.153,129.46Zm-3.523-.041h1.145a1.509,1.509,0,0,0,.965-.3,1.315,1.315,0,0,0,.487-.836.59.59,0,0,0-.122-.536.831.831,0,0,0-.6-.187h-1.154Z" transform="translate(-491.249 -126.16)"/><path d="M590.181,126.3l-3.24,2.574.983,3.5h-1.852l-.658-2.3-1.21.965-.52,1.332H582.1l2.347-6.075h1.583l-1.007,2.606,3.24-2.606Z" transform="translate(-561.261 -126.167)"/><path d="M667.351,127.659h-3.208L663.7,128.8h2.9l-.487,1.259h-2.9l-.447,1.153h3.305l-.487,1.267H660.7l2.347-6.075h4.791Z" transform="translate(-633.478 -126.26)"/><path d="M753.15,126.3l-.5,1.307h-1.811l-1.852,4.767H747.4l1.852-4.767h-1.811l.5-1.307Z" transform="translate(-713.136 -126.168)"/><path d="M802.851,127.659h-3.208L799.2,128.8h2.9l-.487,1.259h-2.9l-.447,1.153h3.305l-.487,1.267H796.2l2.347-6.075h4.791Z" transform="translate(-757.973 -126.26)"/><path d="M873.453,129.46a3.233,3.233,0,0,1-1.292.942l.479,1.965h-1.8l-.235-1.681h-1.169l-.65,1.681H867.2l2.347-6.075h2.729a2.2,2.2,0,0,1,1.519.447,1.315,1.315,0,0,1,.325,1.267,3.365,3.365,0,0,1-.666,1.454Zm-3.533-.041h1.145a1.509,1.509,0,0,0,.965-.3,1.315,1.315,0,0,0,.487-.836.59.59,0,0,0-.122-.536.831.831,0,0,0-.6-.187h-1.153Z" transform="translate(-823.207 -126.16)"/><path d="M947.712,124.9a3.235,3.235,0,0,1,.991.5l-.974,1.267a3.672,3.672,0,0,0-.885-.471,2.62,2.62,0,0,0-.869-.187,1.026,1.026,0,0,0-.5.114.511.511,0,0,0-.26.333.363.363,0,0,0,.17.422,3.606,3.606,0,0,0,.755.317,6.068,6.068,0,0,1,.869.341,1.281,1.281,0,0,1,.536.5,1.2,1.2,0,0,1,.106.869,2.185,2.185,0,0,1-.56,1.137,2.694,2.694,0,0,1-1.088.707,3.871,3.871,0,0,1-1.372.236,4.03,4.03,0,0,1-1.438-.26A2.75,2.75,0,0,1,942.1,130l.965-1.25a2.727,2.727,0,0,0,.893.676,2.382,2.382,0,0,0,1.04.268,1.206,1.206,0,0,0,.627-.145.587.587,0,0,0,.292-.422.332.332,0,0,0-.081-.317.787.787,0,0,0-.308-.2c-.13-.048-.317-.122-.56-.2a6.35,6.35,0,0,1-.869-.317,1.285,1.285,0,0,1-.536-.487,1.158,1.158,0,0,1-.106-.836,2.244,2.244,0,0,1,.524-1.09,2.75,2.75,0,0,1,1.056-.724,3.815,3.815,0,0,1,1.421-.252A4.741,4.741,0,0,1,947.712,124.9Z" transform="translate(-892.025 -124.696)"/></g></g><path d="M11.1,0A4.274,4.274,0,0,0,7.413,2.518L5.048,8.576H0l1.129,2.054.319.553a3.874,3.874,0,0,0,1.973,1.583L1.137,18.622l5.482-1.706,1.5-3.849h11a3.5,3.5,0,0,0,3.053-2.079L24.023,6.27,26.475,0ZM9.875,8.576l.839-2.136a3.346,3.346,0,0,1,2.847-1.949H19.9l-.689,1.77-.145.365c-.52,1.324-1.194,1.941-2.128,1.941H9.875Z"/><path d="M17.783,137.441C17.751,137.393,17.807,137.489,17.783,137.441Z" transform="translate(-16.329 -126.266)" fill="url(#a)"/><path d="M64.929,22.9a3.289,3.289,0,0,0-.365.658L62.2,29.617h4.826l.836-2.136a2.891,2.891,0,0,1,.739-1.031V22.9Z" transform="translate(-57.148 -21.04)" opacity="0.2" fill="url(#b)"/><g transform="translate(1.145 12.758)" opacity="0.2"><path d="M16.382,157.1,14.1,162.956l5.482-1.705,1.5-3.849C21.084,157.408,16.869,157.425,16.382,157.1Z" transform="translate(-14.1 -157.1)" fill="url(#c)"/></g></g></g></svg>