<svg xmlns="http://www.w3.org/2000/svg" xmlns:xlink="http://www.w3.org/1999/xlink" width="115" height="44" viewBox="0 0 115 44"><defs><clipPath id="b"><rect width="115" height="44"/></clipPath></defs><g id="a" clip-path="url(#b)"><rect width="115" height="44" fill="#fff"/><path d="M69.568,11.752a5.223,5.223,0,0,1-4.676,2.516,5.152,5.152,0,0,1-5.416-5.262,5.4,5.4,0,0,1,10.792,0v.446H60.881a4.116,4.116,0,0,0,7.363,1.926ZM64.892,5a3.793,3.793,0,0,0-3.97,3.238h7.92A3.778,3.778,0,0,0,64.892,5Zm-19.7,6.753a5.223,5.223,0,0,1-4.676,2.516A5.151,5.151,0,0,1,35.1,9.006a5.152,5.152,0,0,1,5.416-5.262,5.118,5.118,0,0,1,5.375,5.262v.446H36.507a3.815,3.815,0,0,0,4.011,3.562,3.784,3.784,0,0,0,3.352-1.636ZM40.519,5a3.793,3.793,0,0,0-3.97,3.238h7.921A3.779,3.779,0,0,0,40.519,5ZM33.128.048V14.005H31.763V.434ZM71.856,8.783c0-3.318,2-5.039,4.968-5.039s4.968,1.72,4.968,5.039V14H80.429V8.784C80.429,6.314,79,5,76.825,5s-3.6,1.316-3.6,3.784V14H71.856Zm-24.373.284a5.1,5.1,0,0,1,5.375-5.323,5.166,5.166,0,0,1,5.436,5.3,5.055,5.055,0,0,1-5.212,5.221,4.529,4.529,0,0,1-4.235-2.409v6.416H47.483ZM52.878,5a3.847,3.847,0,0,0-4.031,4.007,4.032,4.032,0,0,0,8.064,0A3.859,3.859,0,0,0,52.878,5ZM28.323,0a1.014,1.014,0,0,1,1.039,1.032,1.039,1.039,0,0,1-2.077,0A1.014,1.014,0,0,1,28.323,0Zm-.671,4.008h1.364V14H27.651ZM9.876,8.156c0-2.975,1.751-4.412,4.073-4.412a3.755,3.755,0,0,1,3.624,2.247A3.717,3.717,0,0,1,21.2,3.744c2.321,0,4.072,1.437,4.072,4.412v5.849H23.9V8.156C23.9,6.031,22.724,5,21.094,5s-2.83,1.072-2.83,3.157v5.849H16.9V8.156C16.9,6.071,15.679,5,14.05,5S11.24,6.03,11.24,8.156v5.849H9.876ZM0,11.191H1.384c.061,1.072,1.039,1.842,2.728,1.842,1.752,0,2.729-.81,2.729-1.883,0-1.214-1.283-1.355-2.729-1.538C2.3,9.391.244,9.107.244,6.9c0-1.882,1.486-3.156,3.847-3.156S7.9,5.04,7.941,6.74H6.6c-.061-.992-.977-1.76-2.524-1.76s-2.465.769-2.465,1.8c0,1.235,1.3,1.376,2.728,1.558,1.568.2,3.889.445,3.889,2.712,0,1.9-1.609,3.218-4.113,3.218C1.628,14.268.06,12.953,0,11.192" transform="translate(17.001 13)" fill="#050505"/></g></svg>