<svg xmlns="http://www.w3.org/2000/svg" xmlns:xlink="http://www.w3.org/1999/xlink" viewBox="7212 3407.5 600 590.902"><defs><style>.a{fill:#fff;}.b{fill:url(#a);}.c,.g{fill:#c9ced1;}.d{fill:#f5f6f7;}.e{fill:#d09d26;}.f{fill:#e9eaeb;}.g,.j{opacity:0.5;}.h{fill:url(#f);}.i{opacity:0.8;clip-path:url(#i);}.j{fill:url(#j);}.k{fill:url(#k);}.l{filter:url(#g);}.m{filter:url(#d);}.n{filter:url(#b);}</style><linearGradient id="a" x2="0" y2="1" gradientUnits="objectBoundingBox"><stop offset="0" stop-color="#fff"/><stop offset="0.703" stop-color="#fff" stop-opacity="0.902"/><stop offset="1" stop-color="#fff" stop-opacity="0"/></linearGradient><filter id="b" x="7313.5" y="3407.5" width="347" height="567" filterUnits="userSpaceOnUse"><feOffset dy="2" input="SourceAlpha"/><feGaussianBlur stdDeviation="4.5" result="c"/><feFlood flood-color="#32325d" flood-opacity="0.059"/><feComposite operator="in" in2="c"/><feComposite in="SourceGraphic"/></filter><filter id="d" x="7212" y="3653.736" width="374" height="292" filterUnits="userSpaceOnUse"><feOffset dy="3" input="SourceAlpha"/><feGaussianBlur stdDeviation="20" result="e"/><feFlood flood-opacity="0.051"/><feComposite operator="in" in2="e"/><feComposite in="SourceGraphic"/></filter><linearGradient id="f" x1="1" x2="0" gradientUnits="objectBoundingBox"><stop offset="0" stop-color="#fff" stop-opacity="0"/><stop offset="0.485" stop-color="#fff" stop-opacity="0.922"/><stop offset="1" stop-color="#fff"/></linearGradient><filter id="g" x="7476" y="3653.736" width="336" height="292" filterUnits="userSpaceOnUse"><feOffset dy="3" input="SourceAlpha"/><feGaussianBlur stdDeviation="20" result="h"/><feFlood flood-opacity="0.051"/><feComposite operator="in" in2="h"/><feComposite in="SourceGraphic"/></filter><clipPath id="i"><path class="a" d="M10,0H171a10,10,0,0,1,10,10V172a0,0,0,0,1,0,0H0a0,0,0,0,1,0,0V10A10,10,0,0,1,10,0Z"/></clipPath><linearGradient id="j" x1="0.926" y1="0.323" x2="0.106" y2="0.309" gradientUnits="objectBoundingBox"><stop offset="0" stop-color="#c9ced1" stop-opacity="0.259"/><stop offset="1" stop-color="#c9ced1"/></linearGradient><linearGradient id="k" x1="0.5" x2="0.5" y2="1" gradientUnits="objectBoundingBox"><stop offset="0" stop-color="#eeeff0"/><stop offset="1" stop-color="#f1f2f3" stop-opacity="0"/></linearGradient></defs><g transform="translate(6057 2942.736)"><g class="n" transform="matrix(1, 0, 0, 1, -6057, -2942.74)"><rect class="b" width="320" height="540" rx="10" transform="translate(7327 3419)"/></g><g transform="translate(1302.635 521.494)"><rect class="c" width="17" height="2" transform="translate(0.365 -0.494)"/><rect class="c" width="17" height="2" transform="translate(0.365 5.506)"/><rect class="c" width="17" height="2" transform="translate(0.365 11.506)"/></g><g transform="translate(1303.673 586.461)"><rect class="d" width="254" height="172" transform="translate(-0.673 -0.461)"/><rect class="e" width="65" height="8" rx="4" transform="translate(19.327 140.539)"/><rect class="f" width="214" height="8" rx="4" transform="translate(19.327 153.539)"/><g transform="translate(87.327 41.883)"><path class="c" d="M66.625,79.159h-44.6a1.3,1.3,0,0,1-1.3-1.294V48.789l-.943.918a1.3,1.3,0,0,1-1.361.285c-1.959-.732-10.484-9.327-13.05-11.944a1.294,1.294,0,0,1-.264-1.42c1.318-3.035,11.067-14.64,13.009-16.937,5.212-6.165,16.333-8.565,16.8-8.664a1.3,1.3,0,0,1,1.012.208c1.807,1.266,4.943,2.023,8.391,2.023s6.583-.757,8.391-2.023a1.3,1.3,0,0,1,1.013-.208c.47.1,11.591,2.5,16.8,8.664,2.726,3.225,11.723,13.98,13.008,16.937a1.294,1.294,0,0,1-.264,1.42c-2.566,2.617-11.091,11.212-13.05,11.944a1.3,1.3,0,0,1-1.361-.285l-.943-.918V77.864A1.294,1.294,0,0,1,66.625,79.159ZM23.316,76.571H65.329V45.718a1.3,1.3,0,0,1,2.2-.925l2.421,2.356c1.848-1.414,6.533-5.9,10.807-10.236-1.653-2.72-7.106-9.518-12.208-15.552C64.5,16.573,55.889,14.215,53.7,13.679a18.612,18.612,0,0,1-9.38,2.167,18.612,18.612,0,0,1-9.38-2.167c-2.186.536-10.8,2.894-14.846,7.682-5.1,6.034-10.555,12.831-12.208,15.552,4.27,4.327,8.948,8.811,10.808,10.234l2.419-2.354a1.3,1.3,0,0,1,2.2.925V76.571Z" transform="translate(-5 -10.999)"/><path class="c" d="M48.483,23.58c-3.642,0-6.414-1.076-8.239-3.2-2.9-3.371-2.208-8.084-2.178-8.283a1.3,1.3,0,0,1,2.026-.862c1.807,1.266,4.943,2.023,8.391,2.023s6.583-.757,8.391-2.023A1.3,1.3,0,0,1,58.9,12.1c.031.2.719,4.912-2.178,8.283C54.9,22.5,52.125,23.58,48.483,23.58ZM40.6,14.441a7.454,7.454,0,0,0,1.619,4.267c1.312,1.516,3.418,2.285,6.26,2.285s4.949-.769,6.26-2.285a7.458,7.458,0,0,0,1.619-4.267,20.684,20.684,0,0,1-7.879,1.405A20.667,20.667,0,0,1,40.6,14.441Z" transform="translate(-9.16 -10.999)"/><path class="c" d="M78.481,51.264a1.3,1.3,0,0,1-.905-.368l-3.145-3.063a1.292,1.292,0,0,1-.391-.926V27.075c0-.221.043-5.4,3.82-6.595a1.3,1.3,0,0,1,1.381.4c2.726,3.225,11.723,13.98,13.008,16.937a1.294,1.294,0,0,1-.264,1.42c-2.566,2.617-11.091,11.212-13.05,11.944A1.281,1.281,0,0,1,78.481,51.264Zm-1.848-4.9,2.026,1.974C80.52,46.912,85.2,42.428,89.468,38.1c-1.58-2.6-6.632-8.924-11.529-14.748-1.242,1.108-1.305,3.691-1.305,3.722Z" transform="translate(-13.711 -12.187)"/><path class="c" d="M18.875,51.264a1.289,1.289,0,0,1-.455-.083c-1.958-.732-10.483-9.327-13.049-11.944a1.294,1.294,0,0,1-.264-1.42c1.318-3.035,11.067-14.64,13.009-16.937a1.3,1.3,0,0,1,1.381-.4c3.777,1.191,3.82,6.374,3.82,6.595V46.907a1.3,1.3,0,0,1-.391.926L19.78,50.9A1.3,1.3,0,0,1,18.875,51.264ZM7.888,38.1c4.27,4.327,8.948,8.811,10.808,10.234l2.026-1.974V27.075c0-.027-.054-2.615-1.3-3.723C14.52,29.176,9.467,35.5,7.888,38.1Z" transform="translate(-5 -12.187)"/><path class="c" d="M18.875,52.939a1.29,1.29,0,0,1-.455-.083c-1.958-.732-10.483-9.327-13.049-11.944a1.294,1.294,0,0,1-.264-1.42,33.752,33.752,0,0,1,3.56-5.279,1.3,1.3,0,0,1,1.968-.114c2.977,3.1,7.523,7.719,12.271,12.164a1.291,1.291,0,0,1,.411.944v1.375a1.3,1.3,0,0,1-.391.926L19.78,52.571A1.3,1.3,0,0,1,18.875,52.939ZM7.892,39.78c4.269,4.326,8.945,8.808,10.8,10.231l2.026-1.974v-.271c-4.108-3.862-8.031-7.819-10.9-10.778C8.817,38.351,8.231,39.224,7.892,39.78Z" transform="translate(-5 -13.863)"/><path class="c" d="M78.481,52.939a1.3,1.3,0,0,1-.905-.368l-3.145-3.063a1.292,1.292,0,0,1-.391-.926V47.207a1.29,1.29,0,0,1,.41-.944C79.2,41.818,83.744,37.2,86.721,34.1a1.284,1.284,0,0,1,1.009-.4,1.3,1.3,0,0,1,.959.509,33.749,33.749,0,0,1,3.56,5.279,1.294,1.294,0,0,1-.264,1.42c-2.566,2.617-11.091,11.212-13.05,11.944A1.281,1.281,0,0,1,78.481,52.939Zm-1.848-4.9,2.026,1.974c1.86-1.423,6.536-5.9,10.8-10.231-.341-.557-.926-1.43-1.933-2.791-2.866,2.959-6.791,6.916-10.9,10.778v.27Z" transform="translate(-13.711 -13.863)"/></g></g><g transform="translate(1215 768)"><g class="m" transform="matrix(1, 0, 0, 1, -7272, -3710.74)"><path class="a" d="M10,0H244a10,10,0,0,1,10,10V172a0,0,0,0,1,0,0H0a0,0,0,0,1,0,0V10A10,10,0,0,1,10,0Z" transform="translate(7272 3710.74)"/></g><rect class="e" width="65" height="8" rx="4" transform="translate(20 141)"/><rect class="d" width="214" height="8" rx="4" transform="translate(20 154)"/><path class="g" d="M20.511,81.978,50.867,89.97a1.7,1.7,0,0,0,2.067-1.191L58.586,68.4l5.653,20.393a1.7,1.7,0,0,0,2.067,1.191l30.357-7.993a1.7,1.7,0,0,0,1.218-2.039l-1.369-5.83a1.683,1.683,0,0,0-.383-1.56L84.522,25.1A1.7,1.7,0,0,0,82.88,23.81H34.293A1.7,1.7,0,0,0,32.65,25.1L21.085,72.548a1.683,1.683,0,0,0-.383,1.56l-1.369,5.83A1.7,1.7,0,0,0,20.511,81.978ZM23,79.131,23.8,75.86l27.086,7.719-.753,2.737ZM58.586,60.367a1.7,1.7,0,0,0-1.629,1.245l-5.215,18.7L24.575,72.561l8.869-36.392H51.907v3.969a1.7,1.7,0,1,0,3.394,0V36.169h6.6v3.969a1.7,1.7,0,1,0,3.394,0V36.169H83.728L92.6,72.561,65.43,80.308l-5.215-18.7a1.7,1.7,0,0,0-1.629-1.245Zm8.472,25.909-.753-2.737,27.086-7.719.78,3.312ZM35.579,27.191H81.539l1.369,5.6H65.265V29.75a1.7,1.7,0,1,0-3.394,0v3.038H55.288V29.75a1.7,1.7,0,1,0-3.394,0v3.038H34.265Z" transform="translate(66.717 20.19)"/></g><g transform="translate(1479 768)"><g class="l" transform="matrix(1, 0, 0, 1, -7536, -3710.74)"><path class="h" d="M10,0H206a10,10,0,0,1,10,10V172a0,0,0,0,1,0,0H0a0,0,0,0,1,0,0V10A10,10,0,0,1,10,0Z" transform="translate(7536 3710.74)"/></g><rect class="e" width="65" height="8" rx="4" transform="translate(20 141)"/><path class="d" d="M4,0H91a0,0,0,0,1,0,0V8a0,0,0,0,1,0,0H4A4,4,0,0,1,0,4V4A4,4,0,0,1,4,0Z" transform="translate(20 154)"/><g class="i"><path class="j" d="M20.511,81.978,50.867,89.97a1.7,1.7,0,0,0,2.067-1.191L58.586,68.4l5.653,20.393a1.7,1.7,0,0,0,2.067,1.191l30.357-7.993a1.7,1.7,0,0,0,1.218-2.039l-1.369-5.83a1.683,1.683,0,0,0-.383-1.56L84.522,25.1A1.7,1.7,0,0,0,82.88,23.81H34.293A1.7,1.7,0,0,0,32.65,25.1L21.085,72.548a1.683,1.683,0,0,0-.383,1.56l-1.369,5.83A1.7,1.7,0,0,0,20.511,81.978ZM23,79.131,23.8,75.86l27.086,7.719-.753,2.737ZM58.586,60.367a1.7,1.7,0,0,0-1.629,1.245l-5.215,18.7L24.575,72.561l8.869-36.392H51.907v3.969a1.7,1.7,0,1,0,3.394,0V36.169h6.6v3.969a1.7,1.7,0,1,0,3.394,0V36.169H83.728L92.6,72.561,65.43,80.308l-5.215-18.7a1.7,1.7,0,0,0-1.629-1.245Zm8.472,25.909-.753-2.737,27.086-7.719.78,3.312ZM35.579,27.191H81.539l1.369,5.6H65.265V29.75a1.7,1.7,0,1,0-3.394,0v3.038H55.288V29.75a1.7,1.7,0,1,0-3.394,0v3.038H34.265Z" transform="translate(66.717 20.19)"/></g></g><rect class="k" width="254.694" height="104.49" transform="translate(1304.673 951.176)"/><g transform="translate(1411 510)"><circle class="c" cx="10.486" cy="10.486" r="10.486" transform="translate(7 7)"/><path class="d" d="M22.5,5A17.5,17.5,0,1,0,40,22.5,17.5,17.5,0,0,0,22.5,5Zm5.8,17.739L22.92,32.2a.484.484,0,0,1-.841,0L16.7,22.739a.485.485,0,0,1,0-.478L22.08,12.8a.484.484,0,0,1,.841,0L28.3,22.261A.484.484,0,0,1,28.3,22.739Z" transform="translate(-5 -5)"/><g transform="translate(12.939 10.088)"><path class="d" d="M40.192,39.714l1.386-5.742-3.263,5.742Z" transform="translate(-38.316 -32.808)"/><path class="d" d="M40.192,51.244H38.316l3.263,5.742Z" transform="translate(-38.316 -43.372)"/><path class="d" d="M45.707,37.881h3.335l-1.668-6.906Z" transform="translate(-42.837 -30.975)"/><path class="d" d="M49.042,51.244H45.707l1.667,6.906Z" transform="translate(-42.837 -43.372)"/><path class="d" d="M54.669,51.244l-1.386,5.742,3.263-5.742Z" transform="translate(-47.47 -43.372)"/><path class="d" d="M54.669,39.713h1.876l-3.263-5.742Z" transform="translate(-47.47 -32.807)"/></g></g></g></svg>