<svg xmlns="http://www.w3.org/2000/svg" xmlns:xlink="http://www.w3.org/1999/xlink" viewBox="5134.269 3438 731 514"><defs><style>.a,.n{fill:none;}.b{fill:url(#a);}.c{fill:#f5f6f7;}.c,.n{fill-rule:evenodd;}.d{clip-path:url(#g);}.e{fill:#d6d6d6;}.f{fill:#fff;}.g{fill:url(#j);}.h{fill:url(#k);}.i{fill:#004c3f;}.j{fill:#c9ced1;}.k{opacity:0.9;}.l{fill:#e8eaec;}.m{fill:#e9eaeb;}.n{stroke:#6067ce;stroke-linecap:square;}.o{fill:#7ed321;}.p{opacity:0.5;}.q{fill:#d09d26;}.r{filter:url(#r);}.s{filter:url(#p);}.t{filter:url(#n);}.u{filter:url(#l);}.v{filter:url(#h);}.w{filter:url(#e);}.x{filter:url(#b);}</style><linearGradient id="a" x2="0" y2="1" gradientUnits="objectBoundingBox"><stop offset="0" stop-color="#fff"/><stop offset="0.703" stop-color="#fff" stop-opacity="0.902"/><stop offset="1" stop-color="#fff" stop-opacity="0"/></linearGradient><filter id="b" x="5134.269" y="3438" width="711" height="514" filterUnits="userSpaceOnUse"><feOffset dy="10" input="SourceAlpha"/><feGaussianBlur stdDeviation="20" result="c"/><feFlood flood-color="#32325d" flood-opacity="0.071"/><feComposite operator="in" in2="c"/><feComposite in="SourceGraphic"/></filter><filter id="e" x="5180.769" y="3476.5" width="618" height="421" filterUnits="userSpaceOnUse"><feOffset dy="2" input="SourceAlpha"/><feGaussianBlur stdDeviation="4.5" result="f"/><feFlood flood-color="#32325d" flood-opacity="0.059"/><feComposite operator="in" in2="f"/><feComposite in="SourceGraphic"/></filter><clipPath id="g"><rect class="a" width="26" height="6"/></clipPath><filter id="h" x="5354.269" y="3489" width="511" height="280" filterUnits="userSpaceOnUse"><feOffset dy="10" input="SourceAlpha"/><feGaussianBlur stdDeviation="20" result="i"/><feFlood flood-color="#32325d" flood-opacity="0.071"/><feComposite operator="in" in2="i"/><feComposite in="SourceGraphic"/></filter><linearGradient id="j" x1="0.5" x2="0.5" y2="1" gradientUnits="objectBoundingBox"><stop offset="0" stop-color="#fefcfc"/><stop offset="0.683" stop-color="#fefcfc"/><stop offset="1" stop-color="#fefcfc" stop-opacity="0"/></linearGradient><linearGradient id="k" x1="0.5" x2="0.5" y2="1" gradientUnits="objectBoundingBox"><stop offset="0" stop-color="#f1f2f3"/><stop offset="1" stop-color="#f1f2f3" stop-opacity="0"/></linearGradient><filter id="l" x="5356.269" y="3689" width="208" height="200" filterUnits="userSpaceOnUse"><feOffset dy="10" input="SourceAlpha"/><feGaussianBlur stdDeviation="20" result="m"/><feFlood flood-color="#32325d" flood-opacity="0.071"/><feComposite operator="in" in2="m"/><feComposite in="SourceGraphic"/></filter><filter id="n" x="5456.269" y="3689" width="208" height="200" filterUnits="userSpaceOnUse"><feOffset dy="10" input="SourceAlpha"/><feGaussianBlur stdDeviation="20" result="o"/><feFlood flood-color="#32325d" flood-opacity="0.071"/><feComposite operator="in" in2="o"/><feComposite in="SourceGraphic"/></filter><filter id="p" x="5557.268" y="3689" width="208" height="200" filterUnits="userSpaceOnUse"><feOffset dy="10" input="SourceAlpha"/><feGaussianBlur stdDeviation="20" result="q"/><feFlood flood-color="#32325d" flood-opacity="0.071"/><feComposite operator="in" in2="q"/><feComposite in="SourceGraphic"/></filter><filter id="r" x="5657.269" y="3689" width="208" height="200" filterUnits="userSpaceOnUse"><feOffset dy="10" input="SourceAlpha"/><feGaussianBlur stdDeviation="20" result="s"/><feFlood flood-color="#32325d" flood-opacity="0.071"/><feComposite operator="in" in2="s"/><feComposite in="SourceGraphic"/></filter></defs><g transform="translate(4044 2896)"><g class="x" transform="matrix(1, 0, 0, 1, -4044, -2896)"><rect class="b" width="591" height="394" rx="10" transform="translate(5194.27 3488)"/></g><g class="w" transform="matrix(1, 0, 0, 1, -4044, -2896)"><rect class="b" width="591" height="394" rx="10" transform="translate(5194.27 3488)"/></g><path class="c" d="M0,16.323H591v1H0Z" transform="translate(1150.269 595.678)"/><g class="d" transform="translate(1160.269 599)"><g transform="translate(-1215 -2771)"><circle class="e" cx="3" cy="3" r="3" transform="translate(1215 2771)"/></g><g transform="translate(-1205 -2771)"><circle class="e" cx="3" cy="3" r="3" transform="translate(1215 2771)"/></g><g transform="translate(-1195 -2771)"><circle class="e" cx="3" cy="3" r="3" transform="translate(1215 2771)"/></g></g><g class="v" transform="matrix(1, 0, 0, 1, -4044, -2896)"><rect class="f" width="391" height="160" rx="10" transform="translate(5414.27 3539)"/></g><g transform="translate(-400.731 -2170)"><rect class="g" width="200" height="371" transform="translate(1551 2783)"/><path class="h" d="M121.88,44.148v345h1v-345" transform="translate(1628.852 2738.852)"/><rect class="f" width="200" height="30" rx="5" transform="translate(1521 2886)"/><circle class="i" cx="5" cy="5" r="5" transform="translate(1531 2896)"/><rect class="i" width="160" height="6" rx="3" transform="translate(1551 2898)"/><rect class="f" width="200" height="30" rx="5" transform="translate(1521 2936)"/><circle class="j" cx="5" cy="5" r="5" transform="translate(1531 2946)"/><rect class="j" width="160" height="6" rx="3" transform="translate(1551 2948)"/><g transform="translate(0 40)"><rect class="f" width="200" height="30" rx="5" transform="translate(1521 2936)"/><circle class="j" cx="5" cy="5" r="5" transform="translate(1531 2946)"/><rect class="j" width="160" height="6" rx="3" transform="translate(1551 2948)"/></g><g class="k" transform="translate(0 80)"><rect class="f" width="200" height="30" rx="5" transform="translate(1521 2936)"/><circle class="j" cx="5" cy="5" r="5" transform="translate(1531 2946)"/><rect class="j" width="160" height="6" rx="3" transform="translate(1551 2948)"/></g><path class="l" d="M1,97.5H201V97H1" transform="translate(1550 2740)"/><g transform="translate(10)"><rect class="j" width="50" height="6" rx="3" transform="translate(1581 2821)"/><rect class="m" width="50" height="6" rx="3" transform="translate(1651 2821)"/></g><path class="n" d="M0,15H58.5" transform="translate(1586 2822)"/><rect class="j" width="28" height="6" rx="3" transform="translate(1735 2796)"/><circle class="o" cx="4" cy="4" r="4" transform="translate(1721 2795)"/><g class="p"><rect class="f" width="200" height="30" rx="5" transform="translate(1521 3066)"/><circle class="j" cx="5" cy="5" r="5" transform="translate(1531 3076)"/><rect class="j" width="160" height="6" rx="3" transform="translate(1551 3078)"/></g><rect class="j" width="50" height="6" rx="3" transform="translate(1549 2796)"/><path class="i" d="M13.494,12.333a.5.5,0,1,0-.745-.666l-1.89,2.11a.5.5,0,0,0,0,.667l1.89,2.13a.5.5,0,1,0,.748-.663l-1.594-1.8,1.594-1.78Z" transform="translate(1525 2785)"/></g><g class="u" transform="matrix(1, 0, 0, 1, -4044, -2896)"><rect class="f" width="88" height="80" rx="10" transform="translate(5416.27 3739)"/></g><g class="t" transform="matrix(1, 0, 0, 1, -4044, -2896)"><rect class="f" width="88" height="80" rx="10" transform="translate(5516.27 3739)"/></g><g class="s" transform="matrix(1, 0, 0, 1, -4044, -2896)"><rect class="f" width="88" height="80" rx="10" transform="translate(5617.27 3739)"/></g><g class="r" transform="matrix(1, 0, 0, 1, -4044, -2896)"><rect class="f" width="88" height="80" rx="10" transform="translate(5717.27 3739)"/></g><rect class="j" width="50" height="6" rx="3" transform="translate(1544.269 820)"/><g transform="translate(-9010.731 -17448)"><rect class="j" width="132" height="6" rx="3" transform="translate(10514 18163)"/><rect class="m" width="70" height="6" rx="3" transform="translate(10545 18174)"/></g><rect class="q" width="64" height="14" rx="7" transform="translate(1537.269 762)"/><circle class="q" cx="5" cy="5" r="5" transform="translate(1441 905)"/><circle class="q" cx="5" cy="5" r="5" transform="translate(1541 905)"/><circle class="q" cx="5" cy="5" r="5" transform="translate(1643 905)"/><circle class="q" cx="5" cy="5" r="5" transform="translate(1742 905)"/></g></svg>