<svg xmlns="http://www.w3.org/2000/svg" xmlns:xlink="http://www.w3.org/1999/xlink" viewBox="7961 -7629 711 514"><defs><style>.a{fill:none;}.b{fill:url(#a);}.c{fill:#2c343d;}.c,.g{fill-rule:evenodd;}.d{fill:#3c98df;}.e{fill:#46505c;opacity:0.6;}.f{fill:#3c454f;}.g{fill:#212b37;}.h{clip-path:url(#g);}.i{fill:#d6d6d6;}.j{fill:url(#h);}.k{clip-path:url(#i);}.l{fill:#004c3f;}.m{clip-path:url(#j);}.n{fill:#c9ced1;}.o{fill:#fff;}.p{fill:#f5f6f7;}.q{fill:#fefcfc;stroke:#f5f6f7;}.r{fill:url(#m);}.s{stroke:none;}.t{filter:url(#n);}.u{filter:url(#k);}.v{filter:url(#e);}.w{filter:url(#b);}</style><linearGradient id="a" x2="0" y2="1" gradientUnits="objectBoundingBox"><stop offset="0" stop-color="#fff"/><stop offset="0.703" stop-color="#fff" stop-opacity="0.902"/><stop offset="1" stop-color="#fff" stop-opacity="0"/></linearGradient><filter id="b" x="7961" y="-7629" width="711" height="514" filterUnits="userSpaceOnUse"><feOffset dy="10" input="SourceAlpha"/><feGaussianBlur stdDeviation="20" result="c"/><feFlood flood-color="#32325d" flood-opacity="0.071"/><feComposite operator="in" in2="c"/><feComposite in="SourceGraphic"/></filter><filter id="e" x="8007.5" y="-7590.5" width="618" height="421" filterUnits="userSpaceOnUse"><feOffset dy="2" input="SourceAlpha"/><feGaussianBlur stdDeviation="4.5" result="f"/><feFlood flood-color="#32325d" flood-opacity="0.059"/><feComposite operator="in" in2="f"/><feComposite in="SourceGraphic"/></filter><clipPath id="g"><rect class="a" width="26" height="6"/></clipPath><linearGradient id="h" x1="0.5" x2="0.5" y2="1" gradientUnits="objectBoundingBox"><stop offset="0" stop-color="#f1f2f3"/><stop offset="1" stop-color="#f1f2f3" stop-opacity="0"/></linearGradient><clipPath id="i"><rect class="a" width="113" height="162"/></clipPath><clipPath id="j"><rect class="a" width="113" height="48"/></clipPath><filter id="k" x="8336.5" y="-7503.5" width="312" height="132" filterUnits="userSpaceOnUse"><feOffset dy="2" input="SourceAlpha"/><feGaussianBlur stdDeviation="4.5" result="l"/><feFlood flood-color="#32325d" flood-opacity="0.059"/><feComposite operator="in" in2="l"/><feComposite in="SourceGraphic"/></filter><linearGradient id="m" x1="0.5" x2="0.5" y2="1" gradientUnits="objectBoundingBox"><stop offset="0" stop-color="#fff"/><stop offset="0.423" stop-color="#fff"/><stop offset="1" stop-color="#fff" stop-opacity="0"/></linearGradient><filter id="n" x="8336.5" y="-7378.5" width="312" height="166" filterUnits="userSpaceOnUse"><feOffset dy="2" input="SourceAlpha"/><feGaussianBlur stdDeviation="4.5" result="o"/><feFlood flood-color="#32325d" flood-opacity="0.059"/><feComposite operator="in" in2="o"/><feComposite in="SourceGraphic"/></filter></defs><g transform="translate(6869 -10341)"><g class="w" transform="matrix(1, 0, 0, 1, -6869, 10341)"><rect class="b" width="591" height="394" rx="10" transform="translate(8021 -7579)"/></g><g class="v" transform="matrix(1, 0, 0, 1, -6869, 10341)"><rect class="b" width="591" height="394" rx="10" transform="translate(8021 -7579)"/></g><path class="c" d="M120.7,16.323h463v29h-463Z" transform="translate(1159.299 2765.677)"/><circle class="d" cx="6" cy="6" r="6" transform="translate(1578 2790)"/><rect class="e" width="78" height="12" rx="6" transform="translate(1600 2790)"/><rect class="f" width="251" height="17" rx="3" transform="translate(1294 2788)"/><path class="g" d="M0,16.323H128v29H0Z" transform="translate(1152 2765.677)"/><g class="h" transform="translate(1162 2769)"><g transform="translate(-1215 -2771)"><circle class="i" cx="3" cy="3" r="3" transform="translate(1215 2771)"/></g><g transform="translate(-1205 -2771)"><circle class="i" cx="3" cy="3" r="3" transform="translate(1215 2771)"/></g><g transform="translate(-1195 -2771)"><circle class="i" cx="3" cy="3" r="3" transform="translate(1215 2771)"/></g></g><path class="j" d="M121.88,44.148v345h1v-345" transform="translate(1157.12 2766.852)"/><g class="k" transform="translate(1119 2828)"><g transform="translate(-1119 -2828)"><circle class="l" cx="3" cy="3" r="3" transform="translate(1119 2828)"/><rect class="l" width="103" height="6" rx="3" transform="translate(1129 2828)"/></g><g transform="translate(-1119 -2802)"><circle class="l" cx="3" cy="3" r="3" transform="translate(1119 2828)"/><rect class="l" width="103" height="6" rx="3" transform="translate(1129 2828)"/></g><g transform="translate(-1119 -2776)"><circle class="l" cx="3" cy="3" r="3" transform="translate(1119 2828)"/><rect class="l" width="103" height="6" rx="3" transform="translate(1129 2828)"/></g><g transform="translate(-1119 -2750)"><circle class="l" cx="3" cy="3" r="3" transform="translate(1119 2828)"/><rect class="l" width="103" height="6" rx="3" transform="translate(1129 2828)"/></g><g transform="translate(-1119 -2724)"><circle class="l" cx="3" cy="3" r="3" transform="translate(1119 2828)"/><rect class="l" width="103" height="6" rx="3" transform="translate(1129 2828)"/></g><g transform="translate(-1119 -2698)"><circle class="l" cx="3" cy="3" r="3" transform="translate(1119 2828)"/><rect class="l" width="103" height="6" rx="3" transform="translate(1129 2828)"/></g><g transform="translate(-1119 -2672)"><circle class="l" cx="3" cy="3" r="3" transform="translate(1119 2828)"/><rect class="l" width="103" height="6" rx="3" transform="translate(1129 2828)"/></g></g><g class="m" transform="translate(1136 3019)"><g transform="translate(-1119 -2828)"><circle class="n" cx="3" cy="3" r="3" transform="translate(1119 2828)"/><rect class="n" width="103" height="6" rx="3" transform="translate(1129 2828)"/></g><g transform="translate(-1119 -2807)"><circle class="n" cx="3" cy="3" r="3" transform="translate(1119 2828)"/><rect class="n" width="103" height="6" rx="3" transform="translate(1129 2828)"/></g><g transform="translate(-1119 -2786)"><circle class="n" cx="3" cy="3" r="3" transform="translate(1119 2828)"/><rect class="n" width="103" height="6" rx="3" transform="translate(1129 2828)"/></g></g><g class="u" transform="matrix(1, 0, 0, 1, -6869, 10341)"><rect class="o" width="285" height="105" transform="translate(8350 -7492)"/></g><rect class="n" width="69" height="6" rx="3" transform="translate(1338 2849)"/><rect class="p" width="123" height="6" rx="3" transform="translate(1338 2860)"/><rect class="p" width="109" height="6" rx="3" transform="translate(1338 2871)"/><g class="q" transform="translate(1496 2859)"><rect class="s" width="255" height="25" rx="5"/><rect class="a" x="0.5" y="0.5" width="254" height="24" rx="4.5"/></g><g class="q" transform="translate(1496 2894)"><rect class="s" width="255" height="50" rx="5"/><rect class="a" x="0.5" y="0.5" width="254" height="49" rx="4.5"/></g><g transform="translate(0 125)"><g class="t" transform="matrix(1, 0, 0, 1, -6869, 10216)"><rect class="r" width="285" height="139" transform="translate(8350 -7367)"/></g><rect class="n" width="69" height="6" rx="3" transform="translate(1338 2849)"/><rect class="p" width="123" height="6" rx="3" transform="translate(1338 2860)"/><rect class="p" width="109" height="6" rx="3" transform="translate(1338 2871)"/><g class="q" transform="translate(1496 2859)"><rect class="s" width="255" height="25" rx="5"/><rect class="a" x="0.5" y="0.5" width="254" height="24" rx="4.5"/></g><g class="q" transform="translate(1496 2894)"><rect class="s" width="255" height="50" rx="5"/><rect class="a" x="0.5" y="0.5" width="254" height="49" rx="4.5"/></g></g></g></svg>