<svg xmlns="http://www.w3.org/2000/svg" xmlns:xlink="http://www.w3.org/1999/xlink" viewBox="1116 3371 565 660"><defs><style>.a{fill:none;}.b,.e{fill:#f5f6f7;}.c{fill:url(#a);}.d{fill:#c9ced1;}.e{opacity:0.6;}.f{opacity:0.2;}.g{opacity:0.1;}.h{clip-path:url(#d);}.i{fill:url(#h);}.j{clip-path:url(#i);}.k,.n{fill:#d09d26;}.k{stroke:#fff;}.l{fill:#fff;}.m{fill:#004c3f;}.o{stroke:none;}.p{filter:url(#f);}.q{filter:url(#b);}</style><linearGradient id="a" x1="0.5" x2="0.5" y2="1" gradientUnits="objectBoundingBox"><stop offset="0" stop-color="#fff"/><stop offset="0.661" stop-color="#fff"/><stop offset="1" stop-color="#fff" stop-opacity="0"/></linearGradient><filter id="b" x="1116" y="3455.736" width="376" height="564" filterUnits="userSpaceOnUse"><feOffset dy="3" input="SourceAlpha"/><feGaussianBlur stdDeviation="20" result="c"/><feFlood flood-opacity="0.051"/><feComposite operator="in" in2="c"/><feComposite in="SourceGraphic"/></filter><clipPath id="d"><rect class="a" width="210" height="26"/></clipPath><filter id="f" x="1241" y="3371" width="440" height="660" filterUnits="userSpaceOnUse"><feOffset dx="-30" dy="3" input="SourceAlpha"/><feGaussianBlur stdDeviation="20" result="g"/><feFlood flood-opacity="0.051"/><feComposite operator="in" in2="g"/><feComposite in="SourceGraphic"/></filter><linearGradient id="h" x2="1" y2="1" gradientUnits="objectBoundingBox"><stop offset="0" stop-color="#fff"/><stop offset="1" stop-color="#f5f6f7"/></linearGradient><clipPath id="i"><rect class="b" width="317.5" height="290"/></clipPath></defs><g transform="translate(54 2946.736)"><g transform="translate(223 85)"><g class="q" transform="matrix(1, 0, 0, 1, -277, -3031.74)"><rect class="c" width="256" height="444" rx="10" transform="translate(1176 3512.74)"/></g><g transform="translate(-12.673 -33.461)"><rect class="b" width="103" height="103" transform="translate(931.673 594.461)"/><g transform="translate(944.01 612.806)"><path class="d" d="M66.625,79.159h-44.6a1.3,1.3,0,0,1-1.3-1.294V48.789l-.943.918a1.3,1.3,0,0,1-1.361.285c-1.959-.732-10.484-9.327-13.05-11.944a1.294,1.294,0,0,1-.264-1.42c1.318-3.035,11.067-14.64,13.009-16.937,5.212-6.165,16.333-8.565,16.8-8.664a1.3,1.3,0,0,1,1.012.208c1.807,1.266,4.943,2.023,8.391,2.023s6.583-.757,8.391-2.023a1.3,1.3,0,0,1,1.013-.208c.47.1,11.591,2.5,16.8,8.664,2.726,3.225,11.723,13.98,13.008,16.937a1.294,1.294,0,0,1-.264,1.42c-2.566,2.617-11.091,11.212-13.05,11.944a1.3,1.3,0,0,1-1.361-.285l-.943-.918V77.864A1.294,1.294,0,0,1,66.625,79.159ZM23.316,76.571H65.329V45.718a1.3,1.3,0,0,1,2.2-.925l2.421,2.356c1.848-1.414,6.533-5.9,10.807-10.236-1.653-2.72-7.106-9.518-12.208-15.552C64.5,16.573,55.889,14.215,53.7,13.679a18.612,18.612,0,0,1-9.38,2.167,18.612,18.612,0,0,1-9.38-2.167c-2.186.536-10.8,2.894-14.846,7.682-5.1,6.034-10.555,12.831-12.208,15.552,4.27,4.327,8.948,8.811,10.808,10.234l2.419-2.354a1.3,1.3,0,0,1,2.2.925V76.571Z" transform="translate(-5 -10.999)"/><path class="d" d="M48.483,23.58c-3.642,0-6.414-1.076-8.239-3.2-2.9-3.371-2.208-8.084-2.178-8.283a1.3,1.3,0,0,1,2.026-.862c1.807,1.266,4.943,2.023,8.391,2.023s6.583-.757,8.391-2.023A1.3,1.3,0,0,1,58.9,12.1c.031.2.719,4.912-2.178,8.283C54.9,22.5,52.125,23.58,48.483,23.58ZM40.6,14.441a7.454,7.454,0,0,0,1.619,4.267c1.312,1.516,3.418,2.285,6.26,2.285s4.949-.769,6.26-2.285a7.458,7.458,0,0,0,1.619-4.267,20.684,20.684,0,0,1-7.879,1.405A20.667,20.667,0,0,1,40.6,14.441Z" transform="translate(-9.16 -10.999)"/><path class="d" d="M78.481,51.264a1.3,1.3,0,0,1-.905-.368l-3.145-3.063a1.292,1.292,0,0,1-.391-.926V27.075c0-.221.043-5.4,3.82-6.595a1.3,1.3,0,0,1,1.381.4c2.726,3.225,11.723,13.98,13.008,16.937a1.294,1.294,0,0,1-.264,1.42c-2.566,2.617-11.091,11.212-13.05,11.944A1.281,1.281,0,0,1,78.481,51.264Zm-1.848-4.9,2.026,1.974C80.52,46.912,85.2,42.428,89.468,38.1c-1.58-2.6-6.632-8.924-11.529-14.748-1.242,1.108-1.305,3.691-1.305,3.722Z" transform="translate(-13.711 -12.187)"/><path class="d" d="M18.875,51.264a1.289,1.289,0,0,1-.455-.083c-1.958-.732-10.483-9.327-13.049-11.944a1.294,1.294,0,0,1-.264-1.42c1.318-3.035,11.067-14.64,13.009-16.937a1.3,1.3,0,0,1,1.381-.4c3.777,1.191,3.82,6.374,3.82,6.595V46.907a1.3,1.3,0,0,1-.391.926L19.78,50.9A1.3,1.3,0,0,1,18.875,51.264ZM7.888,38.1c4.27,4.327,8.948,8.811,10.808,10.234l2.026-1.974V27.075c0-.027-.054-2.615-1.3-3.723C14.52,29.176,9.467,35.5,7.888,38.1Z" transform="translate(-5 -12.187)"/><path class="d" d="M18.875,52.939a1.29,1.29,0,0,1-.455-.083c-1.958-.732-10.483-9.327-13.049-11.944a1.294,1.294,0,0,1-.264-1.42,33.752,33.752,0,0,1,3.56-5.279,1.3,1.3,0,0,1,1.968-.114c2.977,3.1,7.523,7.719,12.271,12.164a1.291,1.291,0,0,1,.411.944v1.375a1.3,1.3,0,0,1-.391.926L19.78,52.571A1.3,1.3,0,0,1,18.875,52.939ZM7.892,39.78c4.269,4.326,8.945,8.808,10.8,10.231l2.026-1.974v-.271c-4.108-3.862-8.031-7.819-10.9-10.778C8.817,38.351,8.231,39.224,7.892,39.78Z" transform="translate(-5 -13.863)"/><path class="d" d="M78.481,52.939a1.3,1.3,0,0,1-.905-.368l-3.145-3.063a1.292,1.292,0,0,1-.391-.926V47.207a1.29,1.29,0,0,1,.41-.944C79.2,41.818,83.744,37.2,86.721,34.1a1.284,1.284,0,0,1,1.009-.4,1.3,1.3,0,0,1,.959.509,33.749,33.749,0,0,1,3.56,5.279,1.294,1.294,0,0,1-.264,1.42c-2.566,2.617-11.091,11.212-13.05,11.944A1.281,1.281,0,0,1,78.481,52.939Zm-1.848-4.9,2.026,1.974c1.86-1.423,6.536-5.9,10.8-10.231-.341-.557-.926-1.43-1.933-2.791-2.866,2.959-6.791,6.916-10.9,10.778v.27Z" transform="translate(-13.711 -13.863)"/></g></g><g transform="translate(100.327 -33.461)"><rect class="b" width="103" height="103" transform="translate(931.673 594.461)"/><g transform="translate(944.01 612.806)"><path class="d" d="M66.625,79.159h-44.6a1.3,1.3,0,0,1-1.3-1.294V48.789l-.943.918a1.3,1.3,0,0,1-1.361.285c-1.959-.732-10.484-9.327-13.05-11.944a1.294,1.294,0,0,1-.264-1.42c1.318-3.035,11.067-14.64,13.009-16.937,5.212-6.165,16.333-8.565,16.8-8.664a1.3,1.3,0,0,1,1.012.208c1.807,1.266,4.943,2.023,8.391,2.023s6.583-.757,8.391-2.023a1.3,1.3,0,0,1,1.013-.208c.47.1,11.591,2.5,16.8,8.664,2.726,3.225,11.723,13.98,13.008,16.937a1.294,1.294,0,0,1-.264,1.42c-2.566,2.617-11.091,11.212-13.05,11.944a1.3,1.3,0,0,1-1.361-.285l-.943-.918V77.864A1.294,1.294,0,0,1,66.625,79.159ZM23.316,76.571H65.329V45.718a1.3,1.3,0,0,1,2.2-.925l2.421,2.356c1.848-1.414,6.533-5.9,10.807-10.236-1.653-2.72-7.106-9.518-12.208-15.552C64.5,16.573,55.889,14.215,53.7,13.679a18.612,18.612,0,0,1-9.38,2.167,18.612,18.612,0,0,1-9.38-2.167c-2.186.536-10.8,2.894-14.846,7.682-5.1,6.034-10.555,12.831-12.208,15.552,4.27,4.327,8.948,8.811,10.808,10.234l2.419-2.354a1.3,1.3,0,0,1,2.2.925V76.571Z" transform="translate(-5 -10.999)"/><path class="d" d="M48.483,23.58c-3.642,0-6.414-1.076-8.239-3.2-2.9-3.371-2.208-8.084-2.178-8.283a1.3,1.3,0,0,1,2.026-.862c1.807,1.266,4.943,2.023,8.391,2.023s6.583-.757,8.391-2.023A1.3,1.3,0,0,1,58.9,12.1c.031.2.719,4.912-2.178,8.283C54.9,22.5,52.125,23.58,48.483,23.58ZM40.6,14.441a7.454,7.454,0,0,0,1.619,4.267c1.312,1.516,3.418,2.285,6.26,2.285s4.949-.769,6.26-2.285a7.458,7.458,0,0,0,1.619-4.267,20.684,20.684,0,0,1-7.879,1.405A20.667,20.667,0,0,1,40.6,14.441Z" transform="translate(-9.16 -10.999)"/><path class="d" d="M78.481,51.264a1.3,1.3,0,0,1-.905-.368l-3.145-3.063a1.292,1.292,0,0,1-.391-.926V27.075c0-.221.043-5.4,3.82-6.595a1.3,1.3,0,0,1,1.381.4c2.726,3.225,11.723,13.98,13.008,16.937a1.294,1.294,0,0,1-.264,1.42c-2.566,2.617-11.091,11.212-13.05,11.944A1.281,1.281,0,0,1,78.481,51.264Zm-1.848-4.9,2.026,1.974C80.52,46.912,85.2,42.428,89.468,38.1c-1.58-2.6-6.632-8.924-11.529-14.748-1.242,1.108-1.305,3.691-1.305,3.722Z" transform="translate(-13.711 -12.187)"/><path class="d" d="M18.875,51.264a1.289,1.289,0,0,1-.455-.083c-1.958-.732-10.483-9.327-13.049-11.944a1.294,1.294,0,0,1-.264-1.42c1.318-3.035,11.067-14.64,13.009-16.937a1.3,1.3,0,0,1,1.381-.4c3.777,1.191,3.82,6.374,3.82,6.595V46.907a1.3,1.3,0,0,1-.391.926L19.78,50.9A1.3,1.3,0,0,1,18.875,51.264ZM7.888,38.1c4.27,4.327,8.948,8.811,10.808,10.234l2.026-1.974V27.075c0-.027-.054-2.615-1.3-3.723C14.52,29.176,9.467,35.5,7.888,38.1Z" transform="translate(-5 -12.187)"/><path class="d" d="M18.875,52.939a1.29,1.29,0,0,1-.455-.083c-1.958-.732-10.483-9.327-13.049-11.944a1.294,1.294,0,0,1-.264-1.42,33.752,33.752,0,0,1,3.56-5.279,1.3,1.3,0,0,1,1.968-.114c2.977,3.1,7.523,7.719,12.271,12.164a1.291,1.291,0,0,1,.411.944v1.375a1.3,1.3,0,0,1-.391.926L19.78,52.571A1.3,1.3,0,0,1,18.875,52.939ZM7.892,39.78c4.269,4.326,8.945,8.808,10.8,10.231l2.026-1.974v-.271c-4.108-3.862-8.031-7.819-10.9-10.778C8.817,38.351,8.231,39.224,7.892,39.78Z" transform="translate(-5 -13.863)"/><path class="d" d="M78.481,52.939a1.3,1.3,0,0,1-.905-.368l-3.145-3.063a1.292,1.292,0,0,1-.391-.926V47.207a1.29,1.29,0,0,1,.41-.944C79.2,41.818,83.744,37.2,86.721,34.1a1.284,1.284,0,0,1,1.009-.4,1.3,1.3,0,0,1,.959.509,33.749,33.749,0,0,1,3.56,5.279,1.294,1.294,0,0,1-.264,1.42c-2.566,2.617-11.091,11.212-13.05,11.944A1.281,1.281,0,0,1,78.481,52.939Zm-1.848-4.9,2.026,1.974c1.86-1.423,6.536-5.9,10.8-10.231-.341-.557-.926-1.43-1.933-2.791-2.866,2.959-6.791,6.916-10.9,10.778v.27Z" transform="translate(-13.711 -13.863)"/></g></g><g transform="translate(-12.673 79.539)"><rect class="b" width="103" height="103" transform="translate(931.673 594.461)"/><g transform="translate(944.01 612.806)"><path class="d" d="M66.625,79.159h-44.6a1.3,1.3,0,0,1-1.3-1.294V48.789l-.943.918a1.3,1.3,0,0,1-1.361.285c-1.959-.732-10.484-9.327-13.05-11.944a1.294,1.294,0,0,1-.264-1.42c1.318-3.035,11.067-14.64,13.009-16.937,5.212-6.165,16.333-8.565,16.8-8.664a1.3,1.3,0,0,1,1.012.208c1.807,1.266,4.943,2.023,8.391,2.023s6.583-.757,8.391-2.023a1.3,1.3,0,0,1,1.013-.208c.47.1,11.591,2.5,16.8,8.664,2.726,3.225,11.723,13.98,13.008,16.937a1.294,1.294,0,0,1-.264,1.42c-2.566,2.617-11.091,11.212-13.05,11.944a1.3,1.3,0,0,1-1.361-.285l-.943-.918V77.864A1.294,1.294,0,0,1,66.625,79.159ZM23.316,76.571H65.329V45.718a1.3,1.3,0,0,1,2.2-.925l2.421,2.356c1.848-1.414,6.533-5.9,10.807-10.236-1.653-2.72-7.106-9.518-12.208-15.552C64.5,16.573,55.889,14.215,53.7,13.679a18.612,18.612,0,0,1-9.38,2.167,18.612,18.612,0,0,1-9.38-2.167c-2.186.536-10.8,2.894-14.846,7.682-5.1,6.034-10.555,12.831-12.208,15.552,4.27,4.327,8.948,8.811,10.808,10.234l2.419-2.354a1.3,1.3,0,0,1,2.2.925V76.571Z" transform="translate(-5 -10.999)"/><path class="d" d="M48.483,23.58c-3.642,0-6.414-1.076-8.239-3.2-2.9-3.371-2.208-8.084-2.178-8.283a1.3,1.3,0,0,1,2.026-.862c1.807,1.266,4.943,2.023,8.391,2.023s6.583-.757,8.391-2.023A1.3,1.3,0,0,1,58.9,12.1c.031.2.719,4.912-2.178,8.283C54.9,22.5,52.125,23.58,48.483,23.58ZM40.6,14.441a7.454,7.454,0,0,0,1.619,4.267c1.312,1.516,3.418,2.285,6.26,2.285s4.949-.769,6.26-2.285a7.458,7.458,0,0,0,1.619-4.267,20.684,20.684,0,0,1-7.879,1.405A20.667,20.667,0,0,1,40.6,14.441Z" transform="translate(-9.16 -10.999)"/><path class="d" d="M78.481,51.264a1.3,1.3,0,0,1-.905-.368l-3.145-3.063a1.292,1.292,0,0,1-.391-.926V27.075c0-.221.043-5.4,3.82-6.595a1.3,1.3,0,0,1,1.381.4c2.726,3.225,11.723,13.98,13.008,16.937a1.294,1.294,0,0,1-.264,1.42c-2.566,2.617-11.091,11.212-13.05,11.944A1.281,1.281,0,0,1,78.481,51.264Zm-1.848-4.9,2.026,1.974C80.52,46.912,85.2,42.428,89.468,38.1c-1.58-2.6-6.632-8.924-11.529-14.748-1.242,1.108-1.305,3.691-1.305,3.722Z" transform="translate(-13.711 -12.187)"/><path class="d" d="M18.875,51.264a1.289,1.289,0,0,1-.455-.083c-1.958-.732-10.483-9.327-13.049-11.944a1.294,1.294,0,0,1-.264-1.42c1.318-3.035,11.067-14.64,13.009-16.937a1.3,1.3,0,0,1,1.381-.4c3.777,1.191,3.82,6.374,3.82,6.595V46.907a1.3,1.3,0,0,1-.391.926L19.78,50.9A1.3,1.3,0,0,1,18.875,51.264ZM7.888,38.1c4.27,4.327,8.948,8.811,10.808,10.234l2.026-1.974V27.075c0-.027-.054-2.615-1.3-3.723C14.52,29.176,9.467,35.5,7.888,38.1Z" transform="translate(-5 -12.187)"/><path class="d" d="M18.875,52.939a1.29,1.29,0,0,1-.455-.083c-1.958-.732-10.483-9.327-13.049-11.944a1.294,1.294,0,0,1-.264-1.42,33.752,33.752,0,0,1,3.56-5.279,1.3,1.3,0,0,1,1.968-.114c2.977,3.1,7.523,7.719,12.271,12.164a1.291,1.291,0,0,1,.411.944v1.375a1.3,1.3,0,0,1-.391.926L19.78,52.571A1.3,1.3,0,0,1,18.875,52.939ZM7.892,39.78c4.269,4.326,8.945,8.808,10.8,10.231l2.026-1.974v-.271c-4.108-3.862-8.031-7.819-10.9-10.778C8.817,38.351,8.231,39.224,7.892,39.78Z" transform="translate(-5 -13.863)"/><path class="d" d="M78.481,52.939a1.3,1.3,0,0,1-.905-.368l-3.145-3.063a1.292,1.292,0,0,1-.391-.926V47.207a1.29,1.29,0,0,1,.41-.944C79.2,41.818,83.744,37.2,86.721,34.1a1.284,1.284,0,0,1,1.009-.4,1.3,1.3,0,0,1,.959.509,33.749,33.749,0,0,1,3.56,5.279,1.294,1.294,0,0,1-.264,1.42c-2.566,2.617-11.091,11.212-13.05,11.944A1.281,1.281,0,0,1,78.481,52.939Zm-1.848-4.9,2.026,1.974c1.86-1.423,6.536-5.9,10.8-10.231-.341-.557-.926-1.43-1.933-2.791-2.866,2.959-6.791,6.916-10.9,10.778v.27Z" transform="translate(-13.711 -13.863)"/></g></g><g transform="translate(100.327 79.539)"><rect class="b" width="103" height="103" transform="translate(931.673 594.461)"/><g transform="translate(944.01 612.806)"><path class="d" d="M66.625,79.159h-44.6a1.3,1.3,0,0,1-1.3-1.294V48.789l-.943.918a1.3,1.3,0,0,1-1.361.285c-1.959-.732-10.484-9.327-13.05-11.944a1.294,1.294,0,0,1-.264-1.42c1.318-3.035,11.067-14.64,13.009-16.937,5.212-6.165,16.333-8.565,16.8-8.664a1.3,1.3,0,0,1,1.012.208c1.807,1.266,4.943,2.023,8.391,2.023s6.583-.757,8.391-2.023a1.3,1.3,0,0,1,1.013-.208c.47.1,11.591,2.5,16.8,8.664,2.726,3.225,11.723,13.98,13.008,16.937a1.294,1.294,0,0,1-.264,1.42c-2.566,2.617-11.091,11.212-13.05,11.944a1.3,1.3,0,0,1-1.361-.285l-.943-.918V77.864A1.294,1.294,0,0,1,66.625,79.159ZM23.316,76.571H65.329V45.718a1.3,1.3,0,0,1,2.2-.925l2.421,2.356c1.848-1.414,6.533-5.9,10.807-10.236-1.653-2.72-7.106-9.518-12.208-15.552C64.5,16.573,55.889,14.215,53.7,13.679a18.612,18.612,0,0,1-9.38,2.167,18.612,18.612,0,0,1-9.38-2.167c-2.186.536-10.8,2.894-14.846,7.682-5.1,6.034-10.555,12.831-12.208,15.552,4.27,4.327,8.948,8.811,10.808,10.234l2.419-2.354a1.3,1.3,0,0,1,2.2.925V76.571Z" transform="translate(-5 -10.999)"/><path class="d" d="M48.483,23.58c-3.642,0-6.414-1.076-8.239-3.2-2.9-3.371-2.208-8.084-2.178-8.283a1.3,1.3,0,0,1,2.026-.862c1.807,1.266,4.943,2.023,8.391,2.023s6.583-.757,8.391-2.023A1.3,1.3,0,0,1,58.9,12.1c.031.2.719,4.912-2.178,8.283C54.9,22.5,52.125,23.58,48.483,23.58ZM40.6,14.441a7.454,7.454,0,0,0,1.619,4.267c1.312,1.516,3.418,2.285,6.26,2.285s4.949-.769,6.26-2.285a7.458,7.458,0,0,0,1.619-4.267,20.684,20.684,0,0,1-7.879,1.405A20.667,20.667,0,0,1,40.6,14.441Z" transform="translate(-9.16 -10.999)"/><path class="d" d="M78.481,51.264a1.3,1.3,0,0,1-.905-.368l-3.145-3.063a1.292,1.292,0,0,1-.391-.926V27.075c0-.221.043-5.4,3.82-6.595a1.3,1.3,0,0,1,1.381.4c2.726,3.225,11.723,13.98,13.008,16.937a1.294,1.294,0,0,1-.264,1.42c-2.566,2.617-11.091,11.212-13.05,11.944A1.281,1.281,0,0,1,78.481,51.264Zm-1.848-4.9,2.026,1.974C80.52,46.912,85.2,42.428,89.468,38.1c-1.58-2.6-6.632-8.924-11.529-14.748-1.242,1.108-1.305,3.691-1.305,3.722Z" transform="translate(-13.711 -12.187)"/><path class="d" d="M18.875,51.264a1.289,1.289,0,0,1-.455-.083c-1.958-.732-10.483-9.327-13.049-11.944a1.294,1.294,0,0,1-.264-1.42c1.318-3.035,11.067-14.64,13.009-16.937a1.3,1.3,0,0,1,1.381-.4c3.777,1.191,3.82,6.374,3.82,6.595V46.907a1.3,1.3,0,0,1-.391.926L19.78,50.9A1.3,1.3,0,0,1,18.875,51.264ZM7.888,38.1c4.27,4.327,8.948,8.811,10.808,10.234l2.026-1.974V27.075c0-.027-.054-2.615-1.3-3.723C14.52,29.176,9.467,35.5,7.888,38.1Z" transform="translate(-5 -12.187)"/><path class="d" d="M18.875,52.939a1.29,1.29,0,0,1-.455-.083c-1.958-.732-10.483-9.327-13.049-11.944a1.294,1.294,0,0,1-.264-1.42,33.752,33.752,0,0,1,3.56-5.279,1.3,1.3,0,0,1,1.968-.114c2.977,3.1,7.523,7.719,12.271,12.164a1.291,1.291,0,0,1,.411.944v1.375a1.3,1.3,0,0,1-.391.926L19.78,52.571A1.3,1.3,0,0,1,18.875,52.939ZM7.892,39.78c4.269,4.326,8.945,8.808,10.8,10.231l2.026-1.974v-.271c-4.108-3.862-8.031-7.819-10.9-10.778C8.817,38.351,8.231,39.224,7.892,39.78Z" transform="translate(-5 -13.863)"/><path class="d" d="M78.481,52.939a1.3,1.3,0,0,1-.905-.368l-3.145-3.063a1.292,1.292,0,0,1-.391-.926V47.207a1.29,1.29,0,0,1,.41-.944C79.2,41.818,83.744,37.2,86.721,34.1a1.284,1.284,0,0,1,1.009-.4,1.3,1.3,0,0,1,.959.509,33.749,33.749,0,0,1,3.56,5.279,1.294,1.294,0,0,1-.264,1.42c-2.566,2.617-11.091,11.212-13.05,11.944A1.281,1.281,0,0,1,78.481,52.939Zm-1.848-4.9,2.026,1.974c1.86-1.423,6.536-5.9,10.8-10.231-.341-.557-.926-1.43-1.933-2.791-2.866,2.959-6.791,6.916-10.9,10.778v.27Z" transform="translate(-13.711 -13.863)"/></g></g><g transform="translate(-12.673 192.539)"><rect class="e" width="103" height="103" transform="translate(931.673 594.461)"/><g class="f" transform="translate(944.01 612.806)"><path class="d" d="M66.625,79.159h-44.6a1.3,1.3,0,0,1-1.3-1.294V48.789l-.943.918a1.3,1.3,0,0,1-1.361.285c-1.959-.732-10.484-9.327-13.05-11.944a1.294,1.294,0,0,1-.264-1.42c1.318-3.035,11.067-14.64,13.009-16.937,5.212-6.165,16.333-8.565,16.8-8.664a1.3,1.3,0,0,1,1.012.208c1.807,1.266,4.943,2.023,8.391,2.023s6.583-.757,8.391-2.023a1.3,1.3,0,0,1,1.013-.208c.47.1,11.591,2.5,16.8,8.664,2.726,3.225,11.723,13.98,13.008,16.937a1.294,1.294,0,0,1-.264,1.42c-2.566,2.617-11.091,11.212-13.05,11.944a1.3,1.3,0,0,1-1.361-.285l-.943-.918V77.864A1.294,1.294,0,0,1,66.625,79.159ZM23.316,76.571H65.329V45.718a1.3,1.3,0,0,1,2.2-.925l2.421,2.356c1.848-1.414,6.533-5.9,10.807-10.236-1.653-2.72-7.106-9.518-12.208-15.552C64.5,16.573,55.889,14.215,53.7,13.679a18.612,18.612,0,0,1-9.38,2.167,18.612,18.612,0,0,1-9.38-2.167c-2.186.536-10.8,2.894-14.846,7.682-5.1,6.034-10.555,12.831-12.208,15.552,4.27,4.327,8.948,8.811,10.808,10.234l2.419-2.354a1.3,1.3,0,0,1,2.2.925V76.571Z" transform="translate(-5 -10.999)"/><path class="d" d="M48.483,23.58c-3.642,0-6.414-1.076-8.239-3.2-2.9-3.371-2.208-8.084-2.178-8.283a1.3,1.3,0,0,1,2.026-.862c1.807,1.266,4.943,2.023,8.391,2.023s6.583-.757,8.391-2.023A1.3,1.3,0,0,1,58.9,12.1c.031.2.719,4.912-2.178,8.283C54.9,22.5,52.125,23.58,48.483,23.58ZM40.6,14.441a7.454,7.454,0,0,0,1.619,4.267c1.312,1.516,3.418,2.285,6.26,2.285s4.949-.769,6.26-2.285a7.458,7.458,0,0,0,1.619-4.267,20.684,20.684,0,0,1-7.879,1.405A20.667,20.667,0,0,1,40.6,14.441Z" transform="translate(-9.16 -10.999)"/><path class="d" d="M78.481,51.264a1.3,1.3,0,0,1-.905-.368l-3.145-3.063a1.292,1.292,0,0,1-.391-.926V27.075c0-.221.043-5.4,3.82-6.595a1.3,1.3,0,0,1,1.381.4c2.726,3.225,11.723,13.98,13.008,16.937a1.294,1.294,0,0,1-.264,1.42c-2.566,2.617-11.091,11.212-13.05,11.944A1.281,1.281,0,0,1,78.481,51.264Zm-1.848-4.9,2.026,1.974C80.52,46.912,85.2,42.428,89.468,38.1c-1.58-2.6-6.632-8.924-11.529-14.748-1.242,1.108-1.305,3.691-1.305,3.722Z" transform="translate(-13.711 -12.187)"/><path class="d" d="M18.875,51.264a1.289,1.289,0,0,1-.455-.083c-1.958-.732-10.483-9.327-13.049-11.944a1.294,1.294,0,0,1-.264-1.42c1.318-3.035,11.067-14.64,13.009-16.937a1.3,1.3,0,0,1,1.381-.4c3.777,1.191,3.82,6.374,3.82,6.595V46.907a1.3,1.3,0,0,1-.391.926L19.78,50.9A1.3,1.3,0,0,1,18.875,51.264ZM7.888,38.1c4.27,4.327,8.948,8.811,10.808,10.234l2.026-1.974V27.075c0-.027-.054-2.615-1.3-3.723C14.52,29.176,9.467,35.5,7.888,38.1Z" transform="translate(-5 -12.187)"/><path class="d" d="M18.875,52.939a1.29,1.29,0,0,1-.455-.083c-1.958-.732-10.483-9.327-13.049-11.944a1.294,1.294,0,0,1-.264-1.42,33.752,33.752,0,0,1,3.56-5.279,1.3,1.3,0,0,1,1.968-.114c2.977,3.1,7.523,7.719,12.271,12.164a1.291,1.291,0,0,1,.411.944v1.375a1.3,1.3,0,0,1-.391.926L19.78,52.571A1.3,1.3,0,0,1,18.875,52.939ZM7.892,39.78c4.269,4.326,8.945,8.808,10.8,10.231l2.026-1.974v-.271c-4.108-3.862-8.031-7.819-10.9-10.778C8.817,38.351,8.231,39.224,7.892,39.78Z" transform="translate(-5 -13.863)"/><path class="d" d="M78.481,52.939a1.3,1.3,0,0,1-.905-.368l-3.145-3.063a1.292,1.292,0,0,1-.391-.926V47.207a1.29,1.29,0,0,1,.41-.944C79.2,41.818,83.744,37.2,86.721,34.1a1.284,1.284,0,0,1,1.009-.4,1.3,1.3,0,0,1,.959.509,33.749,33.749,0,0,1,3.56,5.279,1.294,1.294,0,0,1-.264,1.42c-2.566,2.617-11.091,11.212-13.05,11.944A1.281,1.281,0,0,1,78.481,52.939Zm-1.848-4.9,2.026,1.974c1.86-1.423,6.536-5.9,10.8-10.231-.341-.557-.926-1.43-1.933-2.791-2.866,2.959-6.791,6.916-10.9,10.778v.27Z" transform="translate(-13.711 -13.863)"/></g></g><g class="g" transform="translate(100.327 192.539)"><rect class="b" width="103" height="103" transform="translate(931.673 594.461)"/><g transform="translate(944.01 612.806)"><path class="d" d="M66.625,79.159h-44.6a1.3,1.3,0,0,1-1.3-1.294V48.789l-.943.918a1.3,1.3,0,0,1-1.361.285c-1.959-.732-10.484-9.327-13.05-11.944a1.294,1.294,0,0,1-.264-1.42c1.318-3.035,11.067-14.64,13.009-16.937,5.212-6.165,16.333-8.565,16.8-8.664a1.3,1.3,0,0,1,1.012.208c1.807,1.266,4.943,2.023,8.391,2.023s6.583-.757,8.391-2.023a1.3,1.3,0,0,1,1.013-.208c.47.1,11.591,2.5,16.8,8.664,2.726,3.225,11.723,13.98,13.008,16.937a1.294,1.294,0,0,1-.264,1.42c-2.566,2.617-11.091,11.212-13.05,11.944a1.3,1.3,0,0,1-1.361-.285l-.943-.918V77.864A1.294,1.294,0,0,1,66.625,79.159ZM23.316,76.571H65.329V45.718a1.3,1.3,0,0,1,2.2-.925l2.421,2.356c1.848-1.414,6.533-5.9,10.807-10.236-1.653-2.72-7.106-9.518-12.208-15.552C64.5,16.573,55.889,14.215,53.7,13.679a18.612,18.612,0,0,1-9.38,2.167,18.612,18.612,0,0,1-9.38-2.167c-2.186.536-10.8,2.894-14.846,7.682-5.1,6.034-10.555,12.831-12.208,15.552,4.27,4.327,8.948,8.811,10.808,10.234l2.419-2.354a1.3,1.3,0,0,1,2.2.925V76.571Z" transform="translate(-5 -10.999)"/><path class="d" d="M48.483,23.58c-3.642,0-6.414-1.076-8.239-3.2-2.9-3.371-2.208-8.084-2.178-8.283a1.3,1.3,0,0,1,2.026-.862c1.807,1.266,4.943,2.023,8.391,2.023s6.583-.757,8.391-2.023A1.3,1.3,0,0,1,58.9,12.1c.031.2.719,4.912-2.178,8.283C54.9,22.5,52.125,23.58,48.483,23.58ZM40.6,14.441a7.454,7.454,0,0,0,1.619,4.267c1.312,1.516,3.418,2.285,6.26,2.285s4.949-.769,6.26-2.285a7.458,7.458,0,0,0,1.619-4.267,20.684,20.684,0,0,1-7.879,1.405A20.667,20.667,0,0,1,40.6,14.441Z" transform="translate(-9.16 -10.999)"/><path class="d" d="M78.481,51.264a1.3,1.3,0,0,1-.905-.368l-3.145-3.063a1.292,1.292,0,0,1-.391-.926V27.075c0-.221.043-5.4,3.82-6.595a1.3,1.3,0,0,1,1.381.4c2.726,3.225,11.723,13.98,13.008,16.937a1.294,1.294,0,0,1-.264,1.42c-2.566,2.617-11.091,11.212-13.05,11.944A1.281,1.281,0,0,1,78.481,51.264Zm-1.848-4.9,2.026,1.974C80.52,46.912,85.2,42.428,89.468,38.1c-1.58-2.6-6.632-8.924-11.529-14.748-1.242,1.108-1.305,3.691-1.305,3.722Z" transform="translate(-13.711 -12.187)"/><path class="d" d="M18.875,51.264a1.289,1.289,0,0,1-.455-.083c-1.958-.732-10.483-9.327-13.049-11.944a1.294,1.294,0,0,1-.264-1.42c1.318-3.035,11.067-14.64,13.009-16.937a1.3,1.3,0,0,1,1.381-.4c3.777,1.191,3.82,6.374,3.82,6.595V46.907a1.3,1.3,0,0,1-.391.926L19.78,50.9A1.3,1.3,0,0,1,18.875,51.264ZM7.888,38.1c4.27,4.327,8.948,8.811,10.808,10.234l2.026-1.974V27.075c0-.027-.054-2.615-1.3-3.723C14.52,29.176,9.467,35.5,7.888,38.1Z" transform="translate(-5 -12.187)"/><path class="d" d="M18.875,52.939a1.29,1.29,0,0,1-.455-.083c-1.958-.732-10.483-9.327-13.049-11.944a1.294,1.294,0,0,1-.264-1.42,33.752,33.752,0,0,1,3.56-5.279,1.3,1.3,0,0,1,1.968-.114c2.977,3.1,7.523,7.719,12.271,12.164a1.291,1.291,0,0,1,.411.944v1.375a1.3,1.3,0,0,1-.391.926L19.78,52.571A1.3,1.3,0,0,1,18.875,52.939ZM7.892,39.78c4.269,4.326,8.945,8.808,10.8,10.231l2.026-1.974v-.271c-4.108-3.862-8.031-7.819-10.9-10.778C8.817,38.351,8.231,39.224,7.892,39.78Z" transform="translate(-5 -13.863)"/><path class="d" d="M78.481,52.939a1.3,1.3,0,0,1-.905-.368l-3.145-3.063a1.292,1.292,0,0,1-.391-.926V47.207a1.29,1.29,0,0,1,.41-.944C79.2,41.818,83.744,37.2,86.721,34.1a1.284,1.284,0,0,1,1.009-.4,1.3,1.3,0,0,1,.959.509,33.749,33.749,0,0,1,3.56,5.279,1.294,1.294,0,0,1-.264,1.42c-2.566,2.617-11.091,11.212-13.05,11.944A1.281,1.281,0,0,1,78.481,52.939Zm-1.848-4.9,2.026,1.974c1.86-1.423,6.536-5.9,10.8-10.231-.341-.557-.926-1.43-1.933-2.791-2.866,2.959-6.791,6.916-10.9,10.778v.27Z" transform="translate(-13.711 -13.863)"/></g></g><g class="h" transform="translate(919 523)"><g transform="translate(-919 -523)"><circle class="b" cx="13" cy="13" r="13" transform="translate(919 523)"/></g><g transform="translate(-873 -523)"><circle class="b" cx="13" cy="13" r="13" transform="translate(919 523)"/></g><g transform="translate(-827 -523)"><circle class="b" cx="13" cy="13" r="13" transform="translate(919 523)"/></g><g transform="translate(-781 -523)"><circle class="b" cx="13" cy="13" r="13" transform="translate(919 523)"/></g><g transform="translate(-735 -523)"><circle class="b" cx="13" cy="13" r="13" transform="translate(919 523)"/></g></g></g><g transform="translate(383 -64)"><g class="p" transform="matrix(1, 0, 0, 1, -437, -2882.74)"><rect class="c" width="320" height="540" rx="10" transform="translate(1331 3428)"/></g><path class="i" d="M10,0H310a10,10,0,0,1,10,10V290a0,0,0,0,1,0,0H0a0,0,0,0,1,0,0V10A10,10,0,0,1,10,0Z" transform="translate(894 545.264)"/><g class="j" transform="translate(896.5 545.264)"><g transform="translate(55.421 46.351)"><path class="d" d="M244.412,270.328H67.5a5.137,5.137,0,0,1-5.143-5.133V149.877l-3.74,3.642a5.148,5.148,0,0,1-5.4,1.13c-7.77-2.9-41.582-36.993-51.757-47.373a5.131,5.131,0,0,1-1.047-5.632C5.648,89.608,44.315,43.58,52.016,34.472,72.689,10.021,116.794.5,118.662.109a5.14,5.14,0,0,1,4.013.825c7.167,5.022,19.606,8.023,33.281,8.023s26.111-3,33.281-8.023a5.148,5.148,0,0,1,4.017-.825c1.865.392,45.973,9.912,66.646,34.363,10.813,12.792,46.5,55.445,51.591,67.173a5.131,5.131,0,0,1-1.047,5.632c-10.179,10.38-43.987,44.469-51.757,47.373a5.148,5.148,0,0,1-5.4-1.13l-3.74-3.642V265.192A5.132,5.132,0,0,1,244.412,270.328ZM72.644,260.063H239.272V137.7a5.137,5.137,0,0,1,8.727-3.67l9.6,9.344c7.33-5.608,25.91-23.414,42.861-40.6-6.557-10.789-28.183-37.749-48.42-61.679-16.057-18.989-50.211-28.343-58.882-30.467-9.011,5.483-22.392,8.595-37.2,8.595s-28.19-3.112-37.2-8.595c-8.671,2.124-42.826,11.478-58.883,30.467C39.64,65.026,18.011,91.986,11.453,102.774c16.937,17.162,35.489,34.945,42.867,40.59l9.593-9.337a5.139,5.139,0,0,1,8.73,3.67V260.063Z" transform="translate(0 0.003)"/><path class="d" d="M41.682,49.9C27.237,49.9,16.244,45.634,9,37.206-2.482,23.835.246,5.144.367,4.354A5.143,5.143,0,0,1,8.4.937C15.571,5.959,28.01,8.96,41.685,8.96S67.8,5.959,74.967.937A5.143,5.143,0,0,1,83,4.354c.125.794,2.852,19.481-8.637,32.852C67.12,45.634,56.127,49.9,41.682,49.9ZM10.432,13.653c.419,5.077,1.924,11.721,6.422,16.923,5.2,6.013,13.554,9.063,24.828,9.063s19.63-3.05,24.828-9.063c4.5-5.2,6-11.842,6.422-16.923-8.508,3.59-19.422,5.573-31.25,5.573S18.94,17.247,10.432,13.653Z" transform="translate(114.275)"/><path class="d" d="M17.613,122.327a5.137,5.137,0,0,1-3.591-1.459L1.549,108.721A5.125,5.125,0,0,1,0,105.047V26.393C0,25.516.17,4.961,15.152.237a5.156,5.156,0,0,1,5.476,1.584c10.813,12.792,46.5,55.445,51.591,67.173a5.131,5.131,0,0,1-1.047,5.632C60.993,85.005,27.185,119.094,19.415,122A5.081,5.081,0,0,1,17.613,122.327Zm-7.33-19.443,8.037,7.829c7.382-5.646,25.934-23.428,42.867-40.59-6.266-10.317-26.3-35.4-45.727-58.491-4.925,4.395-5.178,14.639-5.178,14.761Z" transform="translate(239.272 32.654)"/><path class="d" d="M55.028,122.329A5.114,5.114,0,0,1,53.222,122c-7.767-2.9-41.578-36.993-51.754-47.373A5.131,5.131,0,0,1,.422,69C5.648,56.959,44.315,10.93,52.016,1.822A5.146,5.146,0,0,1,57.492.239C72.471,4.962,72.644,25.518,72.644,26.394v78.654a5.14,5.14,0,0,1-1.553,3.674L58.618,120.87A5.151,5.151,0,0,1,55.028,122.329Zm-43.574-52.2c16.937,17.162,35.489,34.945,42.867,40.59l8.037-7.829V26.394c0-.107-.215-10.369-5.174-14.764C37.758,34.726,17.716,59.811,11.453,70.125Z" transform="translate(0 32.652)"/><path class="d" d="M55.028,76.3a5.115,5.115,0,0,1-1.806-.329C45.456,73.067,11.644,38.978,1.469,28.6A5.131,5.131,0,0,1,.422,22.967C2.037,19.251,6.657,12.4,14.541,2.03a5.148,5.148,0,0,1,7.8-.45C34.154,13.859,52.183,32.2,71.015,49.822a5.12,5.12,0,0,1,1.629,3.743v5.455a5.14,5.14,0,0,1-1.553,3.674L58.618,74.842A5.152,5.152,0,0,1,55.028,76.3ZM11.467,24.11C28.4,41.269,46.946,59.045,54.321,64.687l8.037-7.829V55.784C46.066,40.465,30.5,24.772,19.13,13.037,15.138,18.44,12.816,21.9,11.467,24.11Z" transform="translate(0 78.681)"/><path class="d" d="M17.613,76.3a5.136,5.136,0,0,1-3.591-1.459L1.549,62.695A5.125,5.125,0,0,1,0,59.021V53.566a5.117,5.117,0,0,1,1.625-3.743C20.458,32.193,38.487,13.859,50.295,1.58a5.091,5.091,0,0,1,4-1.57,5.149,5.149,0,0,1,3.8,2.021C65.984,12.4,70.6,19.252,72.219,22.967A5.131,5.131,0,0,1,71.172,28.6C60.993,38.979,27.185,73.068,19.415,75.972A5.081,5.081,0,0,1,17.613,76.3Zm-7.33-19.443,8.037,7.829C25.7,59.046,44.243,41.27,61.173,24.111c-1.352-2.211-3.674-5.67-7.666-11.069C42.14,24.776,26.575,40.469,10.279,55.788v1.071Z" transform="translate(239.272 78.68)"/></g></g><rect class="d" width="82.5" height="10" rx="5" transform="translate(931 872.264)"/><rect class="b" width="245" height="10" rx="5" transform="translate(931 895.264)"/><rect class="b" width="245" height="10" rx="5" transform="translate(931 918.264)"/><rect class="b" width="183.535" height="10" rx="5" transform="translate(931 942.264)"/><g transform="translate(1139 810.264)"><g class="k"><circle class="o" cx="25" cy="25" r="25"/><circle class="a" cx="25" cy="25" r="24.5"/></g><g transform="translate(12.5 12.5)"><path class="l" d="M33.386,76.013a2.853,2.853,0,1,0-2.853,2.853A2.853,2.853,0,0,0,33.386,76.013Zm-3.945,0A1.092,1.092,0,1,1,30.533,77.1a1.092,1.092,0,0,1-1.092-1.092Z" transform="translate(-22.465 -53.866)"/><path class="l" d="M68.746,76.013a2.853,2.853,0,1,0-2.853,2.853A2.853,2.853,0,0,0,68.746,76.013Zm-3.957,0A1.092,1.092,0,1,1,65.881,77.1,1.092,1.092,0,0,1,64.789,76.013Z" transform="translate(-47.446 -53.866)"/><path class="l" d="M14.258,8.021,10.9,7.434a.881.881,0,0,0-.294,1.735l2.733.481,2.527,15.463a.881.881,0,0,0,.881.74H30.331a.881.881,0,1,0,0-1.761H17.484l-.37-2.26H30.258a.881.881,0,0,0,.839-.611l2.348-7.338a.881.881,0,0,0-.839-1.151H15.629L14.977,8.74A.881.881,0,0,0,14.258,8.021ZM31.4,14.5,29.6,20.07H16.827l-.91-5.577Z" transform="translate(-9.912 -7.427)"/></g></g><rect class="d" width="50" height="10" rx="5" transform="translate(880 577)"/><path class="m" d="M16,13.089a.953.953,0,1,0-1.421-1.27l-3.6,4.025a.96.96,0,0,0-.006,1.272l3.6,4.063A.953.953,0,1,0,16,19.914l-3.04-3.428,3.04-3.4Z" transform="translate(853.269 565.5)"/><g transform="translate(3 4)"><circle class="n" cx="3" cy="3" r="3" transform="translate(1034 815.264)"/><circle class="d" cx="3" cy="3" r="3" transform="translate(1048 815.264)"/><circle class="d" cx="3" cy="3" r="3" transform="translate(1062 815.264)"/></g></g></g></svg>