<svg xmlns="http://www.w3.org/2000/svg" xmlns:xlink="http://www.w3.org/1999/xlink" width="115" height="44" viewBox="0 0 115 44"><defs><clipPath id="b"><rect width="115" height="44"/></clipPath></defs><g id="a" clip-path="url(#b)"><rect width="115" height="44" fill="#fff"/><g transform="translate(20.32 15.89)"><path d="M2.847,41.792a.792.792,0,0,0-.291-.633,1.19,1.19,0,0,0-.721-.205,1.17,1.17,0,0,0-.566.141.634.634,0,0,0-.212.216.592.592,0,0,0-.089.337.484.484,0,0,0,.1.311.581.581,0,0,0,.244.2,1.754,1.754,0,0,0,.343.12,1.773,1.773,0,0,0,.194.045c.064.015.129.032.2.051a3.728,3.728,0,0,1,.4.092,1.473,1.473,0,0,1,.341.154.735.735,0,0,1,.246.253.834.834,0,0,1,.088.407.778.778,0,0,1-.371.711,1.416,1.416,0,0,1-.739.21,1.59,1.59,0,0,1-.942-.266,1.036,1.036,0,0,1-.389-.891H.872a.835.835,0,0,0,.322.756,1.382,1.382,0,0,0,.817.228,1.262,1.262,0,0,0,.312-.04,1,1,0,0,0,.293-.125.708.708,0,0,0,.23-.228.685.685,0,0,0,.085-.354.6.6,0,0,0-.088-.342.712.712,0,0,0-.247-.212,1.59,1.59,0,0,0-.341-.127q-.2-.046-.4-.083-.1-.025-.194-.053t-.194-.052a1.5,1.5,0,0,1-.343-.14.718.718,0,0,1-.244-.244.683.683,0,0,1-.1-.38.737.737,0,0,1,.345-.672,1.357,1.357,0,0,1,.714-.2,1.441,1.441,0,0,1,.842.232.976.976,0,0,1,.362.78ZM7.6,40.859l-.811,3.053H6.779l-.85-3.053H5.685l-.837,3.053H4.839l-.824-3.053h-.2l.912,3.267h.216L5.8,41.033h.009l.87,3.093H6.9l.909-3.267Zm1.043,3.267h.191V40.859H8.642Zm3.3-2.334a.791.791,0,0,0-.292-.633,1.187,1.187,0,0,0-.721-.205,1.17,1.17,0,0,0-.566.141.634.634,0,0,0-.212.216.592.592,0,0,0-.089.337.484.484,0,0,0,.1.311.581.581,0,0,0,.244.2,1.754,1.754,0,0,0,.343.12,1.773,1.773,0,0,0,.194.045c.063.015.129.032.2.051a3.752,3.752,0,0,1,.4.092,1.473,1.473,0,0,1,.341.154.735.735,0,0,1,.246.253.834.834,0,0,1,.088.407.778.778,0,0,1-.371.711,1.416,1.416,0,0,1-.739.21,1.59,1.59,0,0,1-.942-.266,1.035,1.035,0,0,1-.389-.891h.192a.833.833,0,0,0,.322.756,1.382,1.382,0,0,0,.817.228,1.262,1.262,0,0,0,.312-.04,1,1,0,0,0,.293-.125.71.71,0,0,0,.23-.228.689.689,0,0,0,.085-.354.6.6,0,0,0-.088-.342.715.715,0,0,0-.247-.212,1.585,1.585,0,0,0-.341-.127q-.2-.046-.4-.083-.1-.025-.194-.053t-.194-.052a1.515,1.515,0,0,1-.343-.14.72.72,0,0,1-.244-.244.683.683,0,0,1-.1-.38.737.737,0,0,1,.345-.672,1.357,1.357,0,0,1,.713-.2,1.441,1.441,0,0,1,.843.232.976.976,0,0,1,.362.78Zm3.334,0a.79.79,0,0,0-.291-.633,1.19,1.19,0,0,0-.721-.205,1.17,1.17,0,0,0-.566.141.634.634,0,0,0-.212.216.592.592,0,0,0-.089.337.484.484,0,0,0,.1.311.581.581,0,0,0,.244.2,1.754,1.754,0,0,0,.343.12,1.773,1.773,0,0,0,.194.045c.064.015.129.032.2.051a3.728,3.728,0,0,1,.4.092,1.473,1.473,0,0,1,.341.154.735.735,0,0,1,.246.253.834.834,0,0,1,.088.407.778.778,0,0,1-.371.711,1.416,1.416,0,0,1-.739.21,1.59,1.59,0,0,1-.942-.266,1.036,1.036,0,0,1-.389-.891H13.3a.834.834,0,0,0,.323.756,1.379,1.379,0,0,0,.817.228,1.262,1.262,0,0,0,.312-.04,1,1,0,0,0,.293-.125.71.71,0,0,0,.23-.228.685.685,0,0,0,.085-.354.6.6,0,0,0-.088-.342.712.712,0,0,0-.247-.212,1.585,1.585,0,0,0-.341-.127q-.2-.046-.4-.083c-.067-.018-.132-.035-.194-.053s-.13-.033-.194-.052a1.515,1.515,0,0,1-.343-.14.718.718,0,0,1-.244-.244.683.683,0,0,1-.1-.38.737.737,0,0,1,.345-.672,1.355,1.355,0,0,1,.714-.2,1.439,1.439,0,0,1,.842.232.975.975,0,0,1,.362.78Zm4.752-.933-.811,3.053h-.009l-.85-3.053h-.244l-.837,3.053h-.009l-.824-3.053h-.2l.912,3.267h.216l.854-3.093h.009l.87,3.093h.22l.909-3.267Zm3.259,0V42.34H21.263V40.859h-.191v3.267h.191V42.515h2.022v1.611h.191V40.859Zm1.307,3.267h.191V40.859h-.191Zm4.688-3.267v3.267h2.145v-.174H29.472V42.515h1.817V42.34H29.472V41.033H31.4v-.174Z" transform="translate(0 -22.854)"/><path d="M58.907,40.96V42.5H57.37v.191h1.537v1.538H59.1V42.689h1.537V42.5H59.1V40.96Z" transform="translate(-31.857 -22.956)" fill="#fa0032"/><path d="M31.3,8.353V7.479l-2.04.152c-1,.084-1.662.577-1.662,1.314A1.285,1.285,0,0,0,28.956,10.2h.137c.971.023,2.253-.881,2.208-1.845Zm-5.022.653a1.944,1.944,0,0,1,.813-1.732,4.059,4.059,0,0,1,1.968-.653l2.249-.167V6.181a1.644,1.644,0,0,0-1.725-1.846h-.106a2.037,2.037,0,0,0-1.17.334,1.253,1.253,0,0,0-.547.942H26.437c.091-1.405,1.367-2.385,3.092-2.385a2.873,2.873,0,0,1,3.107,2.955V9.447a13.279,13.279,0,0,0,.076,1.708H31.466A6.82,6.82,0,0,1,31.39,9.91a2.842,2.842,0,0,1-2.583,1.4,2.368,2.368,0,0,1-2.53-2.3Zm-5.21,2.146V3.377h1.245V5.108a2.4,2.4,0,0,1,.866-1.336,2.38,2.38,0,0,1,1.443-.47h.7v1.26H24.7c-1.435,0-2.309,1.017-2.309,2.71v3.879Zm-3.4,0a1.448,1.448,0,0,1-1.632-1.61V4.517H14.3V3.378h1.739V.855h1.321V3.378H19.25V4.517H17.359V9.363c0,.463.159.623.622.623h1.5v1.17Zm-6.2,0V.263H12.79V11.155ZM.78,7.266v-7h1.4V7.114c0,1.876.9,2.924,2.6,2.924h.152c1.693,0,2.6-1.048,2.6-2.924V.263h1.4v7a3.728,3.728,0,0,1-4.068,4.041A3.689,3.689,0,0,1,.78,7.266ZM70.1,4.858h-.121a1.535,1.535,0,0,0-1.6,1.489H71.7A1.535,1.535,0,0,0,70.1,4.858ZM66.415,7.266c-.023-2.324,1.419-4.071,3.7-4.041C72.382,3.2,73.68,4.9,73.657,7.174c0,.152-.007.395-.031.729H68.374a1.855,1.855,0,0,0,1.754,1.77h.129a1.32,1.32,0,0,0,1.366-.979h2a3.366,3.366,0,0,1-3.515,2.613,3.742,3.742,0,0,1-3.7-4.041Zm-3.661,3.889V.262h2.018V11.155Zm-4.1,0V3.377h2.022V11.15Zm-.076-8.784V.262h2.181v2.1ZM44.615,11.155V3.377h2.019v1.1a2.653,2.653,0,0,1,2.323-1.253,2.456,2.456,0,0,1,2.375,1.336A2.929,2.929,0,0,1,53.9,3.225a2.51,2.51,0,0,1,2.095.828,3.375,3.375,0,0,1,.668,2.2v4.9H54.64V6.491c0-1.033-.372-1.557-1.2-1.557H53.32a1.759,1.759,0,0,0-1.662,1.9v4.322H49.639V6.491c0-1.033-.387-1.557-1.214-1.557H48.3a1.765,1.765,0,0,0-1.67,1.9v4.322Zm-6.036.152c-2.93,0-4.342-1.5-4.433-3.805h2.1c.076,1.117.9,1.945,2.489,1.945h.152c1.138,0,1.776-.6,1.776-1.322,0-.661-.3-1.01-1.23-1.2l-1.943-.4c-1.905-.4-2.8-1.481-2.8-3.145C34.662,1.72,36.241.08,38.814.11,41.4.088,42.958,1.622,42.936,3.688h-2.1a1.8,1.8,0,0,0-2.019-1.709h-.159c-1.131,0-1.86.615-1.86,1.322s.38,1.04,1.321,1.23l1.632.326c1.935.387,3.013,1.4,3.013,3.107.023,1.869-1.571,3.365-4.182,3.342Z" transform="translate(-0.056)"/></g></g></svg>